999
Inkscape export via OpenSCAD DXF Export
  0
SECTION
  2
HEADER
  9
$ACADVER
  1
AC1014
  9
$HANDSEED
  5
FFFF
  9
$MEASUREMENT
 70
     1
  0
ENDSEC
  0
SECTION
  2
TABLES
  0
TABLE
  2
VPORT
  5
8
330
0
100
AcDbSymbolTable
 70
     4
  0
VPORT
  5
2E
330
8
100
AcDbSymbolTableRecord
100
AcDbViewportTableRecord
  2
*ACTIVE
 70
     0
 10
0.0
 20
0.0
 11
1.0
 21
1.0
 12
210.0
 22
148.5
 13
0.0
 23
0.0
 14
10.0
 24
10.0
 15
10.0
 25
10.0
 16
0.0
 26
0.0
 36
1.0
 17
0.0
 27
0.0
 37
0.0
 40
341.0
 41
1.24
 42
50.0
 43
0.0
 44
0.0
 50
0.0
 51
0.0
 71
     0
 72
   100
 73
     1
 74
     3
 75
     0
 76
     0
 77
     0
 78
     0
  0
ENDTAB
  0
TABLE
  2
LTYPE
  5
5
330
0
100
AcDbSymbolTable
 70
     1
  0
LTYPE
  5
14
330
5
100
AcDbSymbolTableRecord
100
AcDbLinetypeTableRecord
  2
BYBLOCK
 70
     0
  3
 72
    65
 73
     0
 40
0.0
  0
LTYPE
  5
15
330
5
100
AcDbSymbolTableRecord
100
AcDbLinetypeTableRecord
  2
BYLAYER
 70
     0
  3
 72
    65
 73
     0
 40
0.0
  0
LTYPE
  5
16
330
5
100
AcDbSymbolTableRecord
100
AcDbLinetypeTableRecord
  2
CONTINUOUS
 70
     0
  3
Solid line
 72
    65
 73
     0
 40
0.0
  0
ENDTAB
  0
TABLE
0
TABLE
2
LAYER
5
2
330
0
100
AcDbSymbolTable
70
1
0
LAYER
5
10
330
2
100
AcDbSymbolTableRecord
100
AcDbLayerTableRecord
2
Layer_1
70
0
62
7
6
CONTINUOUS
0
ENDTAB
0
ENDSEC
  0
ENDTAB
  0
TABLE
  2
STYLE
  5
3
330
0
100
AcDbSymbolTable
 70
     1
  0
STYLE
  5
11
330
3
100
AcDbSymbolTableRecord
100
AcDbTextStyleTableRecord
  2
STANDARD
 70
     0
 40
0.0
 41
1.0
 50
0.0
 71
     0
 42
2.5
  3
txt
  4
  0
ENDTAB
  0
TABLE
  2
VIEW
  5
6
330
0
100
AcDbSymbolTable
 70
     0
  0
ENDTAB
  0
TABLE
  2
UCS
  5
7
330
0
100
AcDbSymbolTable
 70
     0
  0
ENDTAB
  0
TABLE
  2
APPID
  5
9
330
0
100
AcDbSymbolTable
 70
     2
  0
APPID
  5
12
330
9
100
AcDbSymbolTableRecord
100
AcDbRegAppTableRecord
  2
ACAD
 70
     0
  0
ENDTAB
  0
TABLE
  2
DIMSTYLE
  5
A
330
0
100
AcDbSymbolTable
 70
     1
  0
DIMSTYLE
105
27
330
A
100
AcDbSymbolTableRecord
100
AcDbDimStyleTableRecord
  2
ISO-25
 70
     0
  3
  4
  5
  6
  7
 40
1.0
 41
2.5
 42
0.625
 43
3.75
 44
1.25
 45
0.0
 46
0.0
 47
0.0
 48
0.0
140
2.5
141
2.5
142
0.0
143
0.03937007874016
144
1.0
145
0.0
146
1.0
147
0.625
 71
     0
 72
     0
 73
     0
 74
     0
 75
     0
 76
     0
 77
     1
 78
     8
170
     0
171
     3
172
     1
173
     0
174
     0
175
     0
176
     0
177
     0
178
     0
270
     2
271
     2
272
     2
273
     2
274
     3
340
11
275
     0
280
     0
281
     0
282
     0
283
     0
284
     8
285
     0
286
     0
287
     3
288
     0
  0
ENDTAB
  0
TABLE
  2
BLOCK_RECORD
  5
1
330
0
100
AcDbSymbolTable
 70
     1
  0
BLOCK_RECORD
  5
1F
330
1
100
AcDbSymbolTableRecord
100
AcDbBlockTableRecord
  2
*MODEL_SPACE
  0
BLOCK_RECORD
  5
1B
330
1
100
AcDbSymbolTableRecord
100
AcDbBlockTableRecord
  2
*PAPER_SPACE
  0
ENDTAB
  0
ENDSEC
  0
SECTION
  2
BLOCKS
  0
BLOCK
  5
20
330
1F
100
AcDbEntity
  8
0
100
AcDbBlockBegin
  2
*MODEL_SPACE
 70
     0
 10
0.0
 20
0.0
 30
0.0
  3
*MODEL_SPACE
  1
  0
ENDBLK
  5
21
330
1F
100
AcDbEntity
  8
0
100
AcDbBlockEnd
  0
BLOCK
  5
1C
330
1B
100
AcDbEntity
 67
     1
  8
0
100
AcDbBlockBegin
  2
*PAPER_SPACE
  1
  0
ENDBLK
  5
1D
330
1B
100
AcDbEntity
 67
     1
  8
0
100
AcDbBlockEnd
  0
ENDSEC
  0
SECTION
  2
ENTITIES
0
DIMENSION
5
83
100
AcDbEntity
62
256
370
-1
6
ByLayer
1
total_width
3
Standard
70
0
71
5
72
1
41
1.0
100
AcDbAlignedDimension
13
16.557034
23
0.000000
33
0.0
14
211.801052
24
0.000000
34
0.0
50
0.000000
100
AcDbRotatedDimension
0
DIMENSION
5
83
100
AcDbEntity
62
256
370
-1
6
ByLayer
1
total_minx
3
Standard
70
0
71
5
72
1
41
1.0
100
AcDbAlignedDimension
13
16.557034
23
0.000000
33
0.0
14
0.000000
24
0.000000
34
0.0
50
0.000000
100
AcDbRotatedDimension
0
DIMENSION
5
83
100
AcDbEntity
62
256
370
-1
6
ByLayer
1
total_maxx
3
Standard
70
0
71
5
72
1
41
1.0
100
AcDbAlignedDimension
13
0.000000
23
0.000000
33
0.0
14
211.801052
24
0.000000
34
0.0
50
0.000000
100
AcDbRotatedDimension
0
DIMENSION
5
83
100
AcDbEntity
62
256
370
-1
6
ByLayer
1
total_height
3
Standard
70
0
71
5
72
1
41
1.0
100
AcDbAlignedDimension
13
0.000000
23
40.855048
33
0.0
14
0.000000
24
236.099065
34
0.0
50
90.000000
100
AcDbRotatedDimension
0
DIMENSION
5
83
100
AcDbEntity
62
256
370
-1
6
ByLayer
1
total_miny
3
Standard
70
0
71
5
72
1
41
1.0
100
AcDbAlignedDimension
13
40.855048
23
0.000000
33
0.0
14
0.000000
24
0.000000
34
0.0
50
0.000000
100
AcDbRotatedDimension
0
DIMENSION
5
83
100
AcDbEntity
62
256
370
-1
6
ByLayer
1
total_maxy
3
Standard
70
0
71
5
72
1
41
1.0
100
AcDbAlignedDimension
13
0.000000
23
0.000000
33
0.0
14
236.099065
24
0.000000
34
0.0
50
0.000000
100
AcDbRotatedDimension
0
DIMENSION
8
Layer_1
5
83
100
AcDbEntity
62
256
370
-1
6
ByLayer
1
Layer_1_width
3
Standard
70
0
71
5
72
1
41
1.0
100
AcDbAlignedDimension
13
16.557034
23
0.000000
33
0.0
14
211.801052
24
0.000000
34
0.0
50
0.000000
100
AcDbRotatedDimension
0
DIMENSION
8
Layer_1
5
83
100
AcDbEntity
62
256
370
-1
6
ByLayer
1
Layer_1_minx
3
Standard
70
0
71
5
72
1
41
1.0
100
AcDbAlignedDimension
13
16.557034
23
0.000000
33
0.0
14
0.000000
24
0.000000
34
0.0
50
0.000000
100
AcDbRotatedDimension
0
DIMENSION
8
Layer_1
5
83
100
AcDbEntity
62
256
370
-1
6
ByLayer
1
Layer_1_maxx
3
Standard
70
0
71
5
72
1
41
1.0
100
AcDbAlignedDimension
13
0.000000
23
0.000000
33
0.0
14
211.801052
24
0.000000
34
0.0
50
0.000000
100
AcDbRotatedDimension
0
DIMENSION
8
Layer_1
5
83
100
AcDbEntity
62
256
370
-1
6
ByLayer
1
Layer_1_height
3
Standard
70
0
71
5
72
1
41
1.0
100
AcDbAlignedDimension
13
0.000000
23
40.855048
33
0.0
14
0.000000
24
236.099065
34
0.0
50
90.000000
100
AcDbRotatedDimension
0
DIMENSION
8
Layer_1
5
83
100
AcDbEntity
62
256
370
-1
6
ByLayer
1
Layer_1_miny
3
Standard
70
0
71
5
72
1
41
1.0
100
AcDbAlignedDimension
13
40.855048
23
0.000000
33
0.0
14
0.000000
24
0.000000
34
0.0
50
0.000000
100
AcDbRotatedDimension
0
DIMENSION
8
Layer_1
5
83
100
AcDbEntity
62
256
370
-1
6
ByLayer
1
Layer_1_maxy
3
Standard
70
0
71
5
72
1
41
1.0
100
AcDbAlignedDimension
13
0.000000
23
0.000000
33
0.0
14
236.099065
24
0.000000
34
0.0
50
0.000000
100
AcDbRotatedDimension
62
255
0
LWPOLYLINE
100
AcDbPolyline
8
Layer_1
90
106
70
0
10
114.539892
20
229.264077
30
0.0
10
107.963002
20
229.042522
30
0.0
10
101.434501
20
228.306759
30
0.0
10
94.984022
20
227.075181
30
0.0
10
88.641203
20
225.366182
30
0.0
10
82.435680
20
223.198157
30
0.0
10
76.397089
20
220.589500
30
0.0
10
70.555065
20
217.558604
30
0.0
10
64.939246
20
214.123864
30
0.0
10
59.579267
20
210.303674
30
0.0
10
54.504764
20
206.116427
30
0.0
10
49.745373
20
201.580517
30
0.0
10
45.330731
20
196.714339
30
0.0
10
41.290474
20
191.536287
30
0.0
10
37.654238
20
186.064754
30
0.0
10
34.451658
20
180.318135
30
0.0
10
31.712371
20
174.314824
30
0.0
10
29.713784
20
169.214402
30
0.0
10
28.040485
20
163.999868
30
0.0
10
26.692306
20
158.691382
30
0.0
10
25.669075
20
153.309105
30
0.0
10
24.970623
20
147.873196
30
0.0
10
24.596781
20
142.403818
30
0.0
10
24.547378
20
136.921129
30
0.0
10
24.822244
20
131.445290
30
0.0
10
25.421209
20
125.996461
30
0.0
10
26.344104
20
120.594803
30
0.0
10
27.590759
20
115.260477
30
0.0
10
29.161003
20
110.013641
30
0.0
10
31.054667
20
104.874458
30
0.0
10
33.271581
20
99.863087
30
0.0
10
35.811574
20
94.999688
30
0.0
10
38.674477
20
90.304422
30
0.0
10
41.583692
20
86.021469
30
0.0
10
44.738241
20
81.919455
30
0.0
10
48.124477
20
78.008032
30
0.0
10
51.728749
20
74.296855
30
0.0
10
55.537410
20
70.795576
30
0.0
10
59.536810
20
67.513848
30
0.0
10
63.713300
20
64.461324
30
0.0
10
68.053232
20
61.647658
30
0.0
10
72.542956
20
59.082503
30
0.0
10
77.168824
20
56.775511
30
0.0
10
81.917186
20
54.736336
30
0.0
10
86.774394
20
52.974632
30
0.0
10
91.726799
20
51.500050
30
0.0
10
96.760752
20
50.322245
30
0.0
10
101.862604
20
49.450869
30
0.0
10
107.018706
20
48.895576
30
0.0
10
112.113600
20
48.593850
30
0.0
10
117.219481
20
48.591382
30
0.0
10
122.320272
20
48.883292
30
0.0
10
127.399899
20
49.464700
30
0.0
10
132.442288
20
50.330723
30
0.0
10
137.431361
20
51.476483
30
0.0
10
142.351044
20
52.897099
30
0.0
10
147.185263
20
54.587690
30
0.0
10
151.917940
20
56.543376
30
0.0
10
156.533002
20
58.759277
30
0.0
10
161.014373
20
61.230512
30
0.0
10
165.345978
20
63.952200
30
0.0
10
169.511740
20
66.919461
30
0.0
10
173.495586
20
70.127415
30
0.0
10
177.281440
20
73.571181
30
0.0
10
180.853227
20
77.245879
30
0.0
10
184.119196
20
80.931727
30
0.0
10
187.171226
20
84.793137
30
0.0
10
190.004132
20
88.816457
30
0.0
10
192.612726
20
92.988031
30
0.0
10
194.991823
20
97.294208
30
0.0
10
197.136235
20
101.721334
30
0.0
10
199.040776
20
106.255754
30
0.0
10
200.700260
20
110.883817
30
0.0
10
202.109499
20
115.591868
30
0.0
10
203.263308
20
120.366254
30
0.0
10
204.156500
20
125.193321
30
0.0
10
204.783888
20
130.059417
30
0.0
10
205.140286
20
134.950887
30
0.0
10
205.220508
20
139.854079
30
0.0
10
205.019366
20
144.755338
30
0.0
10
204.531674
20
149.641012
30
0.0
10
203.828595
20
154.435642
30
0.0
10
202.862105
20
159.185036
30
0.0
10
201.638637
20
163.876521
30
0.0
10
200.164624
20
168.497422
30
0.0
10
198.446499
20
173.035065
30
0.0
10
196.490693
20
177.476775
30
0.0
10
194.303640
20
181.809878
30
0.0
10
191.891772
20
186.021699
30
0.0
10
189.261522
20
190.099563
30
0.0
10
186.419322
20
194.030797
30
0.0
10
183.371605
20
197.802726
30
0.0
10
180.124804
20
201.402674
30
0.0
10
176.685352
20
204.817969
30
0.0
10
173.059680
20
208.035934
30
0.0
10
169.254222
20
211.043896
30
0.0
10
165.275410
20
213.829180
30
0.0
10
159.557956
20
217.369818
30
0.0
10
153.589887
20
220.479728
30
0.0
10
147.407300
20
223.144092
30
0.0
10
141.046288
20
225.348092
30
0.0
10
134.542947
20
227.076909
30
0.0
10
127.933370
20
228.315725
30
0.0
10
121.253654
20
229.049721
30
0.0
10
114.539892
20
229.264077
30
0.0
10
114.539892
20
229.264077
30
0.0
62
255
0
LWPOLYLINE
100
AcDbPolyline
8
Layer_1
90
130
70
0
10
211.801052
20
138.477055
30
0.0
10
211.674027
20
133.453439
30
0.0
10
211.297041
20
128.495772
30
0.0
10
210.676227
20
123.610186
30
0.0
10
209.817720
20
118.802815
30
0.0
10
208.727653
20
114.079794
30
0.0
10
207.412160
20
109.447256
30
0.0
10
205.877375
20
104.911335
30
0.0
10
204.129431
20
100.478164
30
0.0
10
202.174462
20
96.153878
30
0.0
10
200.018603
20
91.944609
30
0.0
10
197.667986
20
87.856493
30
0.0
10
195.128746
20
83.895662
30
0.0
10
192.407016
20
80.068251
30
0.0
10
189.508931
20
76.380393
30
0.0
10
186.440623
20
72.838222
30
0.0
10
183.208227
20
69.447871
30
0.0
10
179.817877
20
66.215476
30
0.0
10
176.275706
20
63.147168
30
0.0
10
172.587847
20
60.249083
30
0.0
10
168.760436
20
57.527353
30
0.0
10
164.799605
20
54.988113
30
0.0
10
160.711489
20
52.637497
30
0.0
10
156.502220
20
50.481637
30
0.0
10
152.177934
20
48.526669
30
0.0
10
147.744763
20
46.778725
30
0.0
10
143.208842
20
45.243940
30
0.0
10
138.576303
20
43.928447
30
0.0
10
133.853282
20
42.838380
30
0.0
10
129.045912
20
41.979873
30
0.0
10
124.160326
20
41.359059
30
0.0
10
119.202658
20
40.982073
30
0.0
10
114.179042
20
40.855048
30
0.0
10
109.155427
20
40.982073
30
0.0
10
104.197759
20
41.359059
30
0.0
10
99.312173
20
41.979873
30
0.0
10
94.504803
20
42.838380
30
0.0
10
89.781782
20
43.928447
30
0.0
10
85.149243
20
45.243940
30
0.0
10
80.613322
20
46.778725
30
0.0
10
76.180151
20
48.526669
30
0.0
10
71.855865
20
50.481637
30
0.0
10
67.646596
20
52.637497
30
0.0
10
63.558480
20
54.988113
30
0.0
10
59.597649
20
57.527353
30
0.0
10
55.770238
20
60.249083
30
0.0
10
52.082380
20
63.147168
30
0.0
10
48.540209
20
66.215476
30
0.0
10
45.149858
20
69.447871
30
0.0
10
41.917462
20
72.838222
30
0.0
10
38.849155
20
76.380393
30
0.0
10
35.951069
20
80.068251
30
0.0
10
33.229340
20
83.895662
30
0.0
10
30.690100
20
87.856493
30
0.0
10
28.339483
20
91.944609
30
0.0
10
26.183624
20
96.153878
30
0.0
10
24.228655
20
100.478164
30
0.0
10
22.480712
20
104.911335
30
0.0
10
20.945926
20
109.447256
30
0.0
10
19.630433
20
114.079794
30
0.0
10
18.540366
20
118.802815
30
0.0
10
17.681859
20
123.610186
30
0.0
10
17.061045
20
128.495772
30
0.0
10
16.684059
20
133.453439
30
0.0
10
16.557034
20
138.477055
30
0.0
10
16.684059
20
143.500671
30
0.0
10
17.061045
20
148.458338
30
0.0
10
17.681859
20
153.343924
30
0.0
10
18.540366
20
158.151295
30
0.0
10
19.630433
20
162.874316
30
0.0
10
20.945926
20
167.506854
30
0.0
10
22.480712
20
172.042775
30
0.0
10
24.228655
20
176.475946
30
0.0
10
26.183624
20
180.800233
30
0.0
10
28.339483
20
185.009501
30
0.0
10
30.690100
20
189.097618
30
0.0
10
33.229340
20
193.058449
30
0.0
10
35.951069
20
196.885860
30
0.0
10
38.849155
20
200.573718
30
0.0
10
41.917462
20
204.115889
30
0.0
10
45.149858
20
207.506240
30
0.0
10
48.540209
20
210.738636
30
0.0
10
52.082380
20
213.806943
30
0.0
10
55.770238
20
216.705029
30
0.0
10
59.597649
20
219.426759
30
0.0
10
63.558480
20
221.965999
30
0.0
10
67.646596
20
224.316615
30
0.0
10
71.855865
20
226.472475
30
0.0
10
76.180151
20
228.427443
30
0.0
10
80.613322
20
230.175387
30
0.0
10
85.149243
20
231.710173
30
0.0
10
89.781782
20
233.025666
30
0.0
10
94.504803
20
234.115733
30
0.0
10
99.312173
20
234.974240
30
0.0
10
104.197759
20
235.595054
30
0.0
10
109.155427
20
235.972040
30
0.0
10
114.179042
20
236.099065
30
0.0
10
119.202658
20
235.972040
30
0.0
10
124.160326
20
235.595054
30
0.0
10
129.045912
20
234.974240
30
0.0
10
133.853282
20
234.115733
30
0.0
10
138.576303
20
233.025666
30
0.0
10
143.208842
20
231.710173
30
0.0
10
147.744763
20
230.175387
30
0.0
10
152.177934
20
228.427443
30
0.0
10
156.502220
20
226.472475
30
0.0
10
160.711489
20
224.316615
30
0.0
10
164.799605
20
221.965999
30
0.0
10
168.760436
20
219.426759
30
0.0
10
172.587847
20
216.705029
30
0.0
10
176.275706
20
213.806943
30
0.0
10
179.817877
20
210.738636
30
0.0
10
183.208227
20
207.506240
30
0.0
10
186.440623
20
204.115889
30
0.0
10
189.508931
20
200.573718
30
0.0
10
192.407016
20
196.885860
30
0.0
10
195.128746
20
193.058449
30
0.0
10
197.667986
20
189.097618
30
0.0
10
200.018603
20
185.009501
30
0.0
10
202.174462
20
180.800233
30
0.0
10
204.129431
20
176.475946
30
0.0
10
205.877375
20
172.042775
30
0.0
10
207.412160
20
167.506854
30
0.0
10
208.727653
20
162.874316
30
0.0
10
209.817720
20
158.151295
30
0.0
10
210.676227
20
153.343924
30
0.0
10
211.297041
20
148.458338
30
0.0
10
211.674027
20
143.500671
30
0.0
10
211.801052
20
138.477055
30
0.0
10
211.801052
20
138.477055
30
0.0
  0
ENDSEC
  0
SECTION
  2
OBJECTS
  0
DICTIONARY
  5
C
330
0
100
AcDbDictionary
  3
ACAD_GROUP
350
D
  3
ACAD_MLINESTYLE
350
17
  0
DICTIONARY
  5
D
330
C
100
AcDbDictionary
  0
DICTIONARY
  5
1A
330
C
100
AcDbDictionary
  0
DICTIONARY
  5
17
330
C
100
AcDbDictionary
  3
STANDARD
350
18
  0
DICTIONARY
  5
19
330
C
100
AcDbDictionary
  0
ENDSEC
  0
EOF
