999
Inkscape export via OpenSCAD DXF Export
  0
SECTION
  2
HEADER
  9
$ACADVER
  1
AC1014
  9
$HANDSEED
  5
FFFF
  9
$MEASUREMENT
 70
     1
  0
ENDSEC
  0
SECTION
  2
TABLES
  0
TABLE
  2
VPORT
  5
8
330
0
100
AcDbSymbolTable
 70
     4
  0
VPORT
  5
2E
330
8
100
AcDbSymbolTableRecord
100
AcDbViewportTableRecord
  2
*ACTIVE
 70
     0
 10
0.0
 20
0.0
 11
1.0
 21
1.0
 12
210.0
 22
148.5
 13
0.0
 23
0.0
 14
10.0
 24
10.0
 15
10.0
 25
10.0
 16
0.0
 26
0.0
 36
1.0
 17
0.0
 27
0.0
 37
0.0
 40
341.0
 41
1.24
 42
50.0
 43
0.0
 44
0.0
 50
0.0
 51
0.0
 71
     0
 72
   100
 73
     1
 74
     3
 75
     0
 76
     0
 77
     0
 78
     0
  0
ENDTAB
  0
TABLE
  2
LTYPE
  5
5
330
0
100
AcDbSymbolTable
 70
     1
  0
LTYPE
  5
14
330
5
100
AcDbSymbolTableRecord
100
AcDbLinetypeTableRecord
  2
BYBLOCK
 70
     0
  3

 72
    65
 73
     0
 40
0.0
  0
LTYPE
  5
15
330
5
100
AcDbSymbolTableRecord
100
AcDbLinetypeTableRecord
  2
BYLAYER
 70
     0
  3

 72
    65
 73
     0
 40
0.0
  0
LTYPE
  5
16
330
5
100
AcDbSymbolTableRecord
100
AcDbLinetypeTableRecord
  2
CONTINUOUS
 70
     0
  3
Solid line
 72
    65
 73
     0
 40
0.0
  0
ENDTAB
  0
TABLE
0
TABLE
2
LAYER
5
2
330
0
100
AcDbSymbolTable
70
1
0
LAYER
5
10
330
2
100
AcDbSymbolTableRecord
100
AcDbLayerTableRecord
2
Layer_1
70
0
62
7
6
CONTINUOUS
0
ENDTAB
0
ENDSEC
  0
ENDTAB
  0
TABLE
  2
STYLE
  5
3
330
0
100
AcDbSymbolTable
 70
     1
  0
STYLE
  5
11
330
3
100
AcDbSymbolTableRecord
100
AcDbTextStyleTableRecord
  2
STANDARD
 70
     0
 40
0.0
 41
1.0
 50
0.0
 71
     0
 42
2.5
  3
txt
  4

  0
ENDTAB
  0
TABLE
  2
VIEW
  5
6
330
0
100
AcDbSymbolTable
 70
     0
  0
ENDTAB
  0
TABLE
  2
UCS
  5
7
330
0
100
AcDbSymbolTable
 70
     0
  0
ENDTAB
  0
TABLE
  2
APPID
  5
9
330
0
100
AcDbSymbolTable
 70
     2
  0
APPID
  5
12
330
9
100
AcDbSymbolTableRecord
100
AcDbRegAppTableRecord
  2
ACAD
 70
     0
  0
ENDTAB
  0
TABLE
  2
DIMSTYLE
  5
A
330
0
100
AcDbSymbolTable
 70
     1
  0
DIMSTYLE
105
27
330
A
100
AcDbSymbolTableRecord
100
AcDbDimStyleTableRecord
  2
ISO-25
 70
     0
  3

  4

  5

  6

  7

 40
1.0
 41
2.5
 42
0.625
 43
3.75
 44
1.25
 45
0.0
 46
0.0
 47
0.0
 48
0.0
140
2.5
141
2.5
142
0.0
143
0.03937007874016
144
1.0
145
0.0
146
1.0
147
0.625
 71
     0
 72
     0
 73
     0
 74
     0
 75
     0
 76
     0
 77
     1
 78
     8
170
     0
171
     3
172
     1
173
     0
174
     0
175
     0
176
     0
177
     0
178
     0
270
     2
271
     2
272
     2
273
     2
274
     3
340
11
275
     0
280
     0
281
     0
282
     0
283
     0
284
     8
285
     0
286
     0
287
     3
288
     0
  0
ENDTAB
  0
TABLE
  2
BLOCK_RECORD
  5
1
330
0
100
AcDbSymbolTable
 70
     1
  0
BLOCK_RECORD
  5
1F
330
1
100
AcDbSymbolTableRecord
100
AcDbBlockTableRecord
  2
*MODEL_SPACE
  0
BLOCK_RECORD
  5
1B
330
1
100
AcDbSymbolTableRecord
100
AcDbBlockTableRecord
  2
*PAPER_SPACE
  0
ENDTAB
  0
ENDSEC
  0
SECTION
  2
BLOCKS
  0
BLOCK
  5
20
330
1F
100
AcDbEntity
  8
0
100
AcDbBlockBegin
  2
*MODEL_SPACE
 70
     0
 10
0.0
 20
0.0
 30
0.0
  3
*MODEL_SPACE
  1

  0
ENDBLK
  5
21
330
1F
100
AcDbEntity
  8
0
100
AcDbBlockEnd
  0
BLOCK
  5
1C
330
1B
100
AcDbEntity
 67
     1
  8
0
100
AcDbBlockBegin
  2
*PAPER_SPACE
  1

  0
ENDBLK
  5
1D
330
1B
100
AcDbEntity
 67
     1
  8
0
100
AcDbBlockEnd
  0
ENDSEC
  0
SECTION
  2
ENTITIES
0
DIMENSION
5
83
100
AcDbEntity
62
256
370
-1
6
ByLayer
1
total_width
3
Standard
70
0
71
5
72
1
41
1.0
100
AcDbAlignedDimension
13
16.126983
23
0.000000
33
0.0
14
199.168247
24
0.000000
34
0.0
50
0.000000
100
AcDbRotatedDimension
0
DIMENSION
5
83
100
AcDbEntity
62
256
370
-1
6
ByLayer
1
total_height
3
Standard
70
0
71
5
72
1
41
1.0
100
AcDbAlignedDimension
13
0.000000
23
38.704775
33
0.0
14
0.000000
24
221.746040
34
0.0
50
90.000000
100
AcDbRotatedDimension
0
DIMENSION
8
Layer_1
5
83
100
AcDbEntity
62
256
370
-1
6
ByLayer
1
Layer_1_width
3
Standard
70
0
71
5
72
1
41
1.0
100
AcDbAlignedDimension
13
16.126983
23
0.000000
33
0.0
14
199.168247
24
0.000000
34
0.0
50
0.000000
100
AcDbRotatedDimension
0
DIMENSION
8
Layer_1
5
83
100
AcDbEntity
62
256
370
-1
6
ByLayer
1
Layer_1_height
3
Standard
70
0
71
5
72
1
41
1.0
100
AcDbAlignedDimension
13
0.000000
23
38.704775
33
0.0
14
0.000000
24
221.746040
34
0.0
50
90.000000
100
AcDbRotatedDimension
0
LWPOLYLINE
100
AcDbPolyline
8
Layer_1
90
130
70
0
10
199.168247
20
130.225409
30
0.0
10
199.049161
20
125.515769
30
0.0
10
198.695736
20
120.867956
30
0.0
10
198.113723
20
116.287719
30
0.0
10
197.308873
20
111.780809
30
0.0
10
196.286935
20
107.352977
30
0.0
10
195.053660
20
103.009972
30
0.0
10
193.614799
20
98.757546
30
0.0
10
191.976102
20
94.601448
30
0.0
10
190.143319
20
90.547430
30
0.0
10
188.122201
20
86.601241
30
0.0
10
185.918498
20
82.768632
30
0.0
10
183.537961
20
79.055353
30
0.0
10
180.986339
20
75.467155
30
0.0
10
178.269384
20
72.009788
30
0.0
10
175.392846
20
68.689002
30
0.0
10
172.362475
20
65.510549
30
0.0
10
169.184022
20
62.480177
30
0.0
10
165.863236
20
59.603639
30
0.0
10
162.405869
20
56.886684
30
0.0
10
158.817671
20
54.335062
30
0.0
10
155.104392
20
51.954525
30
0.0
10
151.271783
20
49.750822
30
0.0
10
147.325594
20
47.729703
30
0.0
10
143.271576
20
45.896920
30
0.0
10
139.115478
20
44.258223
30
0.0
10
134.863052
20
42.819362
30
0.0
10
130.520048
20
41.586087
30
0.0
10
126.092215
20
40.564149
30
0.0
10
121.585306
20
39.759299
30
0.0
10
117.005069
20
39.177286
30
0.0
10
112.357255
20
38.823861
30
0.0
10
107.647616
20
38.704775
30
0.0
10
102.937976
20
38.823861
30
0.0
10
98.290163
20
39.177286
30
0.0
10
93.709926
20
39.759299
30
0.0
10
89.203016
20
40.564149
30
0.0
10
84.775184
20
41.586087
30
0.0
10
80.432179
20
42.819362
30
0.0
10
76.179753
20
44.258223
30
0.0
10
72.023655
20
45.896920
30
0.0
10
67.969637
20
47.729703
30
0.0
10
64.023448
20
49.750822
30
0.0
10
60.190839
20
51.954525
30
0.0
10
56.477560
20
54.335062
30
0.0
10
52.889362
20
56.886684
30
0.0
10
49.431995
20
59.603639
30
0.0
10
46.111209
20
62.480177
30
0.0
10
42.932756
20
65.510549
30
0.0
10
39.902385
20
68.689002
30
0.0
10
37.025846
20
72.009788
30
0.0
10
34.308891
20
75.467155
30
0.0
10
31.757270
20
79.055353
30
0.0
10
29.376732
20
82.768632
30
0.0
10
27.173029
20
86.601241
30
0.0
10
25.151911
20
90.547430
30
0.0
10
23.319128
20
94.601448
30
0.0
10
21.680431
20
98.757546
30
0.0
10
20.241569
20
103.009972
30
0.0
10
19.008295
20
107.352977
30
0.0
10
17.986357
20
111.780809
30
0.0
10
17.181506
20
116.287719
30
0.0
10
16.599494
20
120.867956
30
0.0
10
16.246069
20
125.515769
30
0.0
10
16.126983
20
130.225409
30
0.0
10
16.246069
20
134.935049
30
0.0
10
16.599494
20
139.582862
30
0.0
10
17.181506
20
144.163099
30
0.0
10
17.986357
20
148.670009
30
0.0
10
19.008295
20
153.097841
30
0.0
10
20.241569
20
157.440845
30
0.0
10
21.680431
20
161.693272
30
0.0
10
23.319128
20
165.849369
30
0.0
10
25.151911
20
169.903388
30
0.0
10
27.173029
20
173.849577
30
0.0
10
29.376732
20
177.682186
30
0.0
10
31.757270
20
181.395464
30
0.0
10
34.308891
20
184.983662
30
0.0
10
37.025846
20
188.441029
30
0.0
10
39.902385
20
191.761815
30
0.0
10
42.932756
20
194.940268
30
0.0
10
46.111209
20
197.970639
30
0.0
10
49.431995
20
200.847177
30
0.0
10
52.889362
20
203.564132
30
0.0
10
56.477560
20
206.115754
30
0.0
10
60.190839
20
208.496291
30
0.0
10
64.023448
20
210.699994
30
0.0
10
67.969637
20
212.721112
30
0.0
10
72.023655
20
214.553895
30
0.0
10
76.179753
20
216.192592
30
0.0
10
80.432179
20
217.631454
30
0.0
10
84.775184
20
218.864728
30
0.0
10
89.203016
20
219.886666
30
0.0
10
93.709926
20
220.691516
30
0.0
10
98.290163
20
221.273529
30
0.0
10
102.937976
20
221.626954
30
0.0
10
107.647616
20
221.746040
30
0.0
10
112.357255
20
221.626954
30
0.0
10
117.005069
20
221.273529
30
0.0
10
121.585306
20
220.691516
30
0.0
10
126.092215
20
219.886666
30
0.0
10
130.520048
20
218.864728
30
0.0
10
134.863052
20
217.631454
30
0.0
10
139.115478
20
216.192592
30
0.0
10
143.271576
20
214.553895
30
0.0
10
147.325594
20
212.721112
30
0.0
10
151.271783
20
210.699994
30
0.0
10
155.104392
20
208.496291
30
0.0
10
158.817671
20
206.115754
30
0.0
10
162.405869
20
203.564132
30
0.0
10
165.863236
20
200.847177
30
0.0
10
169.184022
20
197.970639
30
0.0
10
172.362475
20
194.940268
30
0.0
10
175.392846
20
191.761815
30
0.0
10
178.269384
20
188.441029
30
0.0
10
180.986339
20
184.983662
30
0.0
10
183.537961
20
181.395464
30
0.0
10
185.918498
20
177.682186
30
0.0
10
188.122201
20
173.849577
30
0.0
10
190.143319
20
169.903388
30
0.0
10
191.976102
20
165.849369
30
0.0
10
193.614799
20
161.693272
30
0.0
10
195.053660
20
157.440845
30
0.0
10
196.286935
20
153.097841
30
0.0
10
197.308873
20
148.670009
30
0.0
10
198.113723
20
144.163099
30
0.0
10
198.695736
20
139.582862
30
0.0
10
199.049161
20
134.935049
30
0.0
10
199.168247
20
130.225409
30
0.0
10
199.168247
20
130.225409
30
0.0
  0
ENDSEC
  0
SECTION
  2
OBJECTS
  0
DICTIONARY
  5
C
330
0
100
AcDbDictionary
  3
ACAD_GROUP
350
D
  3
ACAD_MLINESTYLE
350
17
  0
DICTIONARY
  5
D
330
C
100
AcDbDictionary
  0
DICTIONARY
  5
1A
330
C
100
AcDbDictionary
  0
DICTIONARY
  5
17
330
C
100
AcDbDictionary
  3
STANDARD
350
18
  0
DICTIONARY
  5
19
330
C
100
AcDbDictionary
  0
ENDSEC
  0
EOF
