999
Inkscape export via OpenSCAD DXF Export
  0
SECTION
  2
HEADER
  9
$ACADVER
  1
AC1014
  9
$HANDSEED
  5
FFFF
  9
$MEASUREMENT
 70
     1
  0
ENDSEC
  0
SECTION
  2
TABLES
  0
TABLE
  2
VPORT
  5
8
330
0
100
AcDbSymbolTable
 70
     4
  0
VPORT
  5
2E
330
8
100
AcDbSymbolTableRecord
100
AcDbViewportTableRecord
  2
*ACTIVE
 70
     0
 10
0.0
 20
0.0
 11
1.0
 21
1.0
 12
210.0
 22
148.5
 13
0.0
 23
0.0
 14
10.0
 24
10.0
 15
10.0
 25
10.0
 16
0.0
 26
0.0
 36
1.0
 17
0.0
 27
0.0
 37
0.0
 40
341.0
 41
1.24
 42
50.0
 43
0.0
 44
0.0
 50
0.0
 51
0.0
 71
     0
 72
   100
 73
     1
 74
     3
 75
     0
 76
     0
 77
     0
 78
     0
  0
ENDTAB
  0
TABLE
  2
LTYPE
  5
5
330
0
100
AcDbSymbolTable
 70
     1
  0
LTYPE
  5
14
330
5
100
AcDbSymbolTableRecord
100
AcDbLinetypeTableRecord
  2
BYBLOCK
 70
     0
  3

 72
    65
 73
     0
 40
0.0
  0
LTYPE
  5
15
330
5
100
AcDbSymbolTableRecord
100
AcDbLinetypeTableRecord
  2
BYLAYER
 70
     0
  3

 72
    65
 73
     0
 40
0.0
  0
LTYPE
  5
16
330
5
100
AcDbSymbolTableRecord
100
AcDbLinetypeTableRecord
  2
CONTINUOUS
 70
     0
  3
Solid line
 72
    65
 73
     0
 40
0.0
  0
ENDTAB
  0
TABLE
0
TABLE
2
LAYER
5
2
330
0
100
AcDbSymbolTable
70
1
0
LAYER
5
10
330
2
100
AcDbSymbolTableRecord
100
AcDbLayerTableRecord
2
Layer_1
70
0
62
7
6
CONTINUOUS
0
ENDTAB
0
ENDSEC
  0
ENDTAB
  0
TABLE
  2
STYLE
  5
3
330
0
100
AcDbSymbolTable
 70
     1
  0
STYLE
  5
11
330
3
100
AcDbSymbolTableRecord
100
AcDbTextStyleTableRecord
  2
STANDARD
 70
     0
 40
0.0
 41
1.0
 50
0.0
 71
     0
 42
2.5
  3
txt
  4

  0
ENDTAB
  0
TABLE
  2
VIEW
  5
6
330
0
100
AcDbSymbolTable
 70
     0
  0
ENDTAB
  0
TABLE
  2
UCS
  5
7
330
0
100
AcDbSymbolTable
 70
     0
  0
ENDTAB
  0
TABLE
  2
APPID
  5
9
330
0
100
AcDbSymbolTable
 70
     2
  0
APPID
  5
12
330
9
100
AcDbSymbolTableRecord
100
AcDbRegAppTableRecord
  2
ACAD
 70
     0
  0
ENDTAB
  0
TABLE
  2
DIMSTYLE
  5
A
330
0
100
AcDbSymbolTable
 70
     1
  0
DIMSTYLE
105
27
330
A
100
AcDbSymbolTableRecord
100
AcDbDimStyleTableRecord
  2
ISO-25
 70
     0
  3

  4

  5

  6

  7

 40
1.0
 41
2.5
 42
0.625
 43
3.75
 44
1.25
 45
0.0
 46
0.0
 47
0.0
 48
0.0
140
2.5
141
2.5
142
0.0
143
0.03937007874016
144
1.0
145
0.0
146
1.0
147
0.625
 71
     0
 72
     0
 73
     0
 74
     0
 75
     0
 76
     0
 77
     1
 78
     8
170
     0
171
     3
172
     1
173
     0
174
     0
175
     0
176
     0
177
     0
178
     0
270
     2
271
     2
272
     2
273
     2
274
     3
340
11
275
     0
280
     0
281
     0
282
     0
283
     0
284
     8
285
     0
286
     0
287
     3
288
     0
  0
ENDTAB
  0
TABLE
  2
BLOCK_RECORD
  5
1
330
0
100
AcDbSymbolTable
 70
     1
  0
BLOCK_RECORD
  5
1F
330
1
100
AcDbSymbolTableRecord
100
AcDbBlockTableRecord
  2
*MODEL_SPACE
  0
BLOCK_RECORD
  5
1B
330
1
100
AcDbSymbolTableRecord
100
AcDbBlockTableRecord
  2
*PAPER_SPACE
  0
ENDTAB
  0
ENDSEC
  0
SECTION
  2
BLOCKS
  0
BLOCK
  5
20
330
1F
100
AcDbEntity
  8
0
100
AcDbBlockBegin
  2
*MODEL_SPACE
 70
     0
 10
0.0
 20
0.0
 30
0.0
  3
*MODEL_SPACE
  1

  0
ENDBLK
  5
21
330
1F
100
AcDbEntity
  8
0
100
AcDbBlockEnd
  0
BLOCK
  5
1C
330
1B
100
AcDbEntity
 67
     1
  8
0
100
AcDbBlockBegin
  2
*PAPER_SPACE
  1

  0
ENDBLK
  5
1D
330
1B
100
AcDbEntity
 67
     1
  8
0
100
AcDbBlockEnd
  0
ENDSEC
  0
SECTION
  2
ENTITIES
0
DIMENSION
5
83
100
AcDbEntity
62
256
370
-1
6
ByLayer
1
total_width
3
Standard
70
0
71
5
72
1
41
1.0
100
AcDbAlignedDimension
13
15.522222
23
0.000000
33
0.0
14
198.563487
24
0.000000
34
0.0
50
0.000000
100
AcDbRotatedDimension
0
DIMENSION
5
83
100
AcDbEntity
62
256
370
-1
6
ByLayer
1
total_height
3
Standard
70
0
71
5
72
1
41
1.0
100
AcDbAlignedDimension
13
0.000000
23
38.301595
33
0.0
14
0.000000
24
221.342860
34
0.0
50
90.000000
100
AcDbRotatedDimension
0
DIMENSION
8
Layer_1
5
83
100
AcDbEntity
62
256
370
-1
6
ByLayer
1
Layer_1_width
3
Standard
70
0
71
5
72
1
41
1.0
100
AcDbAlignedDimension
13
15.522222
23
0.000000
33
0.0
14
198.563487
24
0.000000
34
0.0
50
0.000000
100
AcDbRotatedDimension
0
DIMENSION
8
Layer_1
5
83
100
AcDbEntity
62
256
370
-1
6
ByLayer
1
Layer_1_height
3
Standard
70
0
71
5
72
1
41
1.0
100
AcDbAlignedDimension
13
0.000000
23
38.301595
33
0.0
14
0.000000
24
221.342860
34
0.0
50
90.000000
100
AcDbRotatedDimension
62
255
0
LWPOLYLINE
100
AcDbPolyline
8
Layer_1
90
106
70
0
10
107.381147
20
214.935069
30
0.0
10
101.215314
20
214.727361
30
0.0
10
95.094843
20
214.037583
30
0.0
10
89.047520
20
212.882978
30
0.0
10
83.101127
20
211.280792
30
0.0
10
77.283449
20
209.248269
30
0.0
10
71.622270
20
206.802652
30
0.0
10
66.145373
20
203.961188
30
0.0
10
60.880542
20
200.741119
30
0.0
10
55.855562
20
197.159690
30
0.0
10
51.098215
20
193.234146
30
0.0
10
46.636287
20
188.981731
30
0.0
10
42.497560
20
184.419689
30
0.0
10
38.709819
20
179.565265
30
0.0
10
35.300847
20
174.435704
30
0.0
10
32.298429
20
169.048248
30
0.0
10
29.730347
20
163.420144
30
0.0
10
27.856672
20
158.638498
30
0.0
10
26.287954
20
153.749872
30
0.0
10
25.024036
20
148.773167
30
0.0
10
24.064757
20
143.727282
30
0.0
10
23.409959
20
138.631118
30
0.0
10
23.059482
20
133.503575
30
0.0
10
23.013166
20
128.363554
30
0.0
10
23.270854
20
123.229955
30
0.0
10
23.832384
20
118.121678
30
0.0
10
24.697598
20
113.057624
30
0.0
10
25.866337
20
108.056692
30
0.0
10
27.338441
20
103.137784
30
0.0
10
29.113750
20
98.319800
30
0.0
10
31.192107
20
93.621639
30
0.0
10
33.573351
20
89.062203
30
0.0
10
36.257323
20
84.660391
30
0.0
10
38.984711
20
80.645123
30
0.0
10
41.942101
20
76.799484
30
0.0
10
45.116697
20
73.132526
30
0.0
10
48.495702
20
69.653297
30
0.0
10
52.066322
20
66.370847
30
0.0
10
55.815759
20
63.294228
30
0.0
10
59.731219
20
60.432487
30
0.0
10
63.799905
20
57.794675
30
0.0
10
68.009021
20
55.389842
30
0.0
10
72.345772
20
53.227037
30
0.0
10
76.797362
20
51.315311
30
0.0
10
81.350994
20
49.663713
30
0.0
10
85.993874
20
48.281293
30
0.0
10
90.713205
20
47.177101
30
0.0
10
95.496191
20
46.360186
30
0.0
10
100.330037
20
45.839599
30
0.0
10
105.106500
20
45.556731
30
0.0
10
109.893263
20
45.554418
30
0.0
10
114.675255
20
45.828083
30
0.0
10
119.437406
20
46.373152
30
0.0
10
124.164645
20
47.185049
30
0.0
10
128.841901
20
48.259199
30
0.0
10
133.454104
20
49.591026
30
0.0
10
137.986184
20
51.175956
30
0.0
10
142.423069
20
53.009411
30
0.0
10
146.749689
20
55.086818
30
0.0
10
150.950974
20
57.403600
30
0.0
10
155.011854
20
59.955182
30
0.0
10
158.917256
20
62.736990
30
0.0
10
162.652112
20
65.744446
30
0.0
10
166.201350
20
68.972977
30
0.0
10
169.549899
20
72.418006
30
0.0
10
172.611745
20
75.873489
30
0.0
10
175.473024
20
79.493561
30
0.0
10
178.128873
20
83.265423
30
0.0
10
180.574431
20
87.176274
30
0.0
10
182.804834
20
91.213315
30
0.0
10
184.815220
20
95.363746
30
0.0
10
186.600727
20
99.614765
30
0.0
10
188.156493
20
103.953574
30
0.0
10
189.477655
20
108.367372
30
0.0
10
190.559351
20
112.843359
30
0.0
10
191.396718
20
117.368735
30
0.0
10
191.984895
20
121.930699
30
0.0
10
192.319018
20
126.516453
30
0.0
10
192.394225
20
131.113195
30
0.0
10
192.205655
20
135.708126
30
0.0
10
191.748444
20
140.288446
30
0.0
10
191.089307
20
144.783411
30
0.0
10
190.183223
20
149.235968
30
0.0
10
189.036222
20
153.634235
30
0.0
10
187.654335
20
157.966330
30
0.0
10
186.043592
20
162.220370
30
0.0
10
184.210024
20
166.384473
30
0.0
10
182.159662
20
170.446757
30
0.0
10
179.898536
20
174.395339
30
0.0
10
177.432677
20
178.218337
30
0.0
10
174.768114
20
181.903869
30
0.0
10
171.910880
20
185.440052
30
0.0
10
168.867004
20
188.815003
30
0.0
10
165.642517
20
192.016842
30
0.0
10
162.243449
20
195.033685
30
0.0
10
158.675832
20
197.853649
30
0.0
10
154.945695
20
200.464853
30
0.0
10
149.585583
20
203.784200
30
0.0
10
143.990519
20
206.699741
30
0.0
10
138.194344
20
209.197582
30
0.0
10
132.230895
20
211.263832
30
0.0
10
126.134013
20
212.884598
30
0.0
10
119.937534
20
214.045988
30
0.0
10
113.675300
20
214.734109
30
0.0
10
107.381147
20
214.935069
30
0.0
10
107.381147
20
214.935069
30
0.0
62
255
0
LWPOLYLINE
100
AcDbPolyline
8
Layer_1
90
130
70
0
10
198.563487
20
129.822229
30
0.0
10
198.444401
20
125.112590
30
0.0
10
198.090976
20
120.464776
30
0.0
10
197.508963
20
115.884539
30
0.0
10
196.704113
20
111.377630
30
0.0
10
195.682175
20
106.949797
30
0.0
10
194.448900
20
102.606793
30
0.0
10
193.010039
20
98.354366
30
0.0
10
191.371342
20
94.198269
30
0.0
10
189.538559
20
90.144250
30
0.0
10
187.517441
20
86.198061
30
0.0
10
185.313738
20
82.365452
30
0.0
10
182.933201
20
78.652173
30
0.0
10
180.381579
20
75.063975
30
0.0
10
177.664624
20
71.606608
30
0.0
10
174.788086
20
68.285822
30
0.0
10
171.757715
20
65.107369
30
0.0
10
168.579262
20
62.076998
30
0.0
10
165.258476
20
59.200459
30
0.0
10
161.801109
20
56.483504
30
0.0
10
158.212911
20
53.931883
30
0.0
10
154.499633
20
51.551345
30
0.0
10
150.667024
20
49.347642
30
0.0
10
146.720835
20
47.326524
30
0.0
10
142.666816
20
45.493741
30
0.0
10
138.510719
20
43.855043
30
0.0
10
134.258292
20
42.416182
30
0.0
10
129.915288
20
41.182907
30
0.0
10
125.487456
20
40.160970
30
0.0
10
120.980546
20
39.356119
30
0.0
10
116.400309
20
38.774106
30
0.0
10
111.752496
20
38.420682
30
0.0
10
107.042856
20
38.301595
30
0.0
10
102.333216
20
38.420682
30
0.0
10
97.685403
20
38.774106
30
0.0
10
93.105166
20
39.356119
30
0.0
10
88.598256
20
40.160970
30
0.0
10
84.170424
20
41.182907
30
0.0
10
79.827419
20
42.416182
30
0.0
10
75.574993
20
43.855043
30
0.0
10
71.418895
20
45.493741
30
0.0
10
67.364877
20
47.326524
30
0.0
10
63.418688
20
49.347642
30
0.0
10
59.586078
20
51.551345
30
0.0
10
55.872800
20
53.931883
30
0.0
10
52.284601
20
56.483504
30
0.0
10
48.827234
20
59.200459
30
0.0
10
45.506449
20
62.076998
30
0.0
10
42.327995
20
65.107369
30
0.0
10
39.297624
20
68.285822
30
0.0
10
36.421086
20
71.606608
30
0.0
10
33.704131
20
75.063975
30
0.0
10
31.152509
20
78.652173
30
0.0
10
28.771972
20
82.365452
30
0.0
10
26.568269
20
86.198061
30
0.0
10
24.547150
20
90.144250
30
0.0
10
22.714367
20
94.198269
30
0.0
10
21.075670
20
98.354366
30
0.0
10
19.636809
20
102.606793
30
0.0
10
18.403534
20
106.949797
30
0.0
10
17.381596
20
111.377630
30
0.0
10
16.576746
20
115.884539
30
0.0
10
15.994733
20
120.464776
30
0.0
10
15.641308
20
125.112590
30
0.0
10
15.522222
20
129.822229
30
0.0
10
15.641308
20
134.531869
30
0.0
10
15.994733
20
139.179682
30
0.0
10
16.576746
20
143.759919
30
0.0
10
17.381596
20
148.266829
30
0.0
10
18.403534
20
152.694661
30
0.0
10
19.636809
20
157.037666
30
0.0
10
21.075670
20
161.290092
30
0.0
10
22.714367
20
165.446189
30
0.0
10
24.547150
20
169.500208
30
0.0
10
26.568269
20
173.446397
30
0.0
10
28.771972
20
177.279006
30
0.0
10
31.152509
20
180.992285
30
0.0
10
33.704131
20
184.580483
30
0.0
10
36.421086
20
188.037850
30
0.0
10
39.297624
20
191.358635
30
0.0
10
42.327995
20
194.537088
30
0.0
10
45.506449
20
197.567459
30
0.0
10
48.827234
20
200.443997
30
0.0
10
52.284601
20
203.160953
30
0.0
10
55.872800
20
205.712574
30
0.0
10
59.586078
20
208.093111
30
0.0
10
63.418688
20
210.296814
30
0.0
10
67.364877
20
212.317932
30
0.0
10
71.418895
20
214.150715
30
0.0
10
75.574993
20
215.789413
30
0.0
10
79.827419
20
217.228274
30
0.0
10
84.170424
20
218.461548
30
0.0
10
88.598256
20
219.483486
30
0.0
10
93.105166
20
220.288337
30
0.0
10
97.685403
20
220.870349
30
0.0
10
102.333216
20
221.223774
30
0.0
10
107.042856
20
221.342860
30
0.0
10
111.752496
20
221.223774
30
0.0
10
116.400309
20
220.870349
30
0.0
10
120.980546
20
220.288337
30
0.0
10
125.487456
20
219.483486
30
0.0
10
129.915288
20
218.461548
30
0.0
10
134.258292
20
217.228274
30
0.0
10
138.510719
20
215.789413
30
0.0
10
142.666816
20
214.150715
30
0.0
10
146.720835
20
212.317932
30
0.0
10
150.667024
20
210.296814
30
0.0
10
154.499633
20
208.093111
30
0.0
10
158.212911
20
205.712574
30
0.0
10
161.801109
20
203.160953
30
0.0
10
165.258476
20
200.443997
30
0.0
10
168.579262
20
197.567459
30
0.0
10
171.757715
20
194.537088
30
0.0
10
174.788086
20
191.358635
30
0.0
10
177.664624
20
188.037850
30
0.0
10
180.381579
20
184.580483
30
0.0
10
182.933201
20
180.992285
30
0.0
10
185.313738
20
177.279006
30
0.0
10
187.517441
20
173.446397
30
0.0
10
189.538559
20
169.500208
30
0.0
10
191.371342
20
165.446189
30
0.0
10
193.010039
20
161.290092
30
0.0
10
194.448900
20
157.037666
30
0.0
10
195.682175
20
152.694661
30
0.0
10
196.704113
20
148.266829
30
0.0
10
197.508963
20
143.759919
30
0.0
10
198.090976
20
139.179682
30
0.0
10
198.444401
20
134.531869
30
0.0
10
198.563487
20
129.822229
30
0.0
10
198.563487
20
129.822229
30
0.0
  0
ENDSEC
  0
SECTION
  2
OBJECTS
  0
DICTIONARY
  5
C
330
0
100
AcDbDictionary
  3
ACAD_GROUP
350
D
  3
ACAD_MLINESTYLE
350
17
  0
DICTIONARY
  5
D
330
C
100
AcDbDictionary
  0
DICTIONARY
  5
1A
330
C
100
AcDbDictionary
  0
DICTIONARY
  5
17
330
C
100
AcDbDictionary
  3
STANDARD
350
18
  0
DICTIONARY
  5
19
330
C
100
AcDbDictionary
  0
ENDSEC
  0
EOF
