999
Inkscape export via OpenSCAD DXF Export
  0
SECTION
  2
HEADER
  9
$ACADVER
  1
AC1014
  9
$HANDSEED
  5
FFFF
  9
$MEASUREMENT
 70
     1
  0
ENDSEC
  0
SECTION
  2
TABLES
  0
TABLE
  2
VPORT
  5
8
330
0
100
AcDbSymbolTable
 70
     4
  0
VPORT
  5
2E
330
8
100
AcDbSymbolTableRecord
100
AcDbViewportTableRecord
  2
*ACTIVE
 70
     0
 10
0.0
 20
0.0
 11
1.0
 21
1.0
 12
210.0
 22
148.5
 13
0.0
 23
0.0
 14
10.0
 24
10.0
 15
10.0
 25
10.0
 16
0.0
 26
0.0
 36
1.0
 17
0.0
 27
0.0
 37
0.0
 40
341.0
 41
1.24
 42
50.0
 43
0.0
 44
0.0
 50
0.0
 51
0.0
 71
     0
 72
   100
 73
     1
 74
     3
 75
     0
 76
     0
 77
     0
 78
     0
  0
ENDTAB
  0
TABLE
  2
LTYPE
  5
5
330
0
100
AcDbSymbolTable
 70
     1
  0
LTYPE
  5
14
330
5
100
AcDbSymbolTableRecord
100
AcDbLinetypeTableRecord
  2
BYBLOCK
 70
     0
  3

 72
    65
 73
     0
 40
0.0
  0
LTYPE
  5
15
330
5
100
AcDbSymbolTableRecord
100
AcDbLinetypeTableRecord
  2
BYLAYER
 70
     0
  3

 72
    65
 73
     0
 40
0.0
  0
LTYPE
  5
16
330
5
100
AcDbSymbolTableRecord
100
AcDbLinetypeTableRecord
  2
CONTINUOUS
 70
     0
  3
Solid line
 72
    65
 73
     0
 40
0.0
  0
ENDTAB
  0
TABLE
0
TABLE
2
LAYER
5
2
330
0
100
AcDbSymbolTable
70
1
0
LAYER
5
10
330
2
100
AcDbSymbolTableRecord
100
AcDbLayerTableRecord
2
Layer_1
70
0
62
7
6
CONTINUOUS
0
ENDTAB
0
ENDSEC
  0
ENDTAB
  0
TABLE
  2
STYLE
  5
3
330
0
100
AcDbSymbolTable
 70
     1
  0
STYLE
  5
11
330
3
100
AcDbSymbolTableRecord
100
AcDbTextStyleTableRecord
  2
STANDARD
 70
     0
 40
0.0
 41
1.0
 50
0.0
 71
     0
 42
2.5
  3
txt
  4

  0
ENDTAB
  0
TABLE
  2
VIEW
  5
6
330
0
100
AcDbSymbolTable
 70
     0
  0
ENDTAB
  0
TABLE
  2
UCS
  5
7
330
0
100
AcDbSymbolTable
 70
     0
  0
ENDTAB
  0
TABLE
  2
APPID
  5
9
330
0
100
AcDbSymbolTable
 70
     2
  0
APPID
  5
12
330
9
100
AcDbSymbolTableRecord
100
AcDbRegAppTableRecord
  2
ACAD
 70
     0
  0
ENDTAB
  0
TABLE
  2
DIMSTYLE
  5
A
330
0
100
AcDbSymbolTable
 70
     1
  0
DIMSTYLE
105
27
330
A
100
AcDbSymbolTableRecord
100
AcDbDimStyleTableRecord
  2
ISO-25
 70
     0
  3

  4

  5

  6

  7

 40
1.0
 41
2.5
 42
0.625
 43
3.75
 44
1.25
 45
0.0
 46
0.0
 47
0.0
 48
0.0
140
2.5
141
2.5
142
0.0
143
0.03937007874016
144
1.0
145
0.0
146
1.0
147
0.625
 71
     0
 72
     0
 73
     0
 74
     0
 75
     0
 76
     0
 77
     1
 78
     8
170
     0
171
     3
172
     1
173
     0
174
     0
175
     0
176
     0
177
     0
178
     0
270
     2
271
     2
272
     2
273
     2
274
     3
340
11
275
     0
280
     0
281
     0
282
     0
283
     0
284
     8
285
     0
286
     0
287
     3
288
     0
  0
ENDTAB
  0
TABLE
  2
BLOCK_RECORD
  5
1
330
0
100
AcDbSymbolTable
 70
     1
  0
BLOCK_RECORD
  5
1F
330
1
100
AcDbSymbolTableRecord
100
AcDbBlockTableRecord
  2
*MODEL_SPACE
  0
BLOCK_RECORD
  5
1B
330
1
100
AcDbSymbolTableRecord
100
AcDbBlockTableRecord
  2
*PAPER_SPACE
  0
ENDTAB
  0
ENDSEC
  0
SECTION
  2
BLOCKS
  0
BLOCK
  5
20
330
1F
100
AcDbEntity
  8
0
100
AcDbBlockBegin
  2
*MODEL_SPACE
 70
     0
 10
0.0
 20
0.0
 30
0.0
  3
*MODEL_SPACE
  1

  0
ENDBLK
  5
21
330
1F
100
AcDbEntity
  8
0
100
AcDbBlockEnd
  0
BLOCK
  5
1C
330
1B
100
AcDbEntity
 67
     1
  8
0
100
AcDbBlockBegin
  2
*PAPER_SPACE
  1

  0
ENDBLK
  5
1D
330
1B
100
AcDbEntity
 67
     1
  8
0
100
AcDbBlockEnd
  0
ENDSEC
  0
SECTION
  2
ENTITIES
0
DIMENSION
5
83
100
AcDbEntity
62
256
370
-1
6
ByLayer
1
total_width
3
Standard
70
0
71
5
72
1
41
1.0
100
AcDbAlignedDimension
13
9.448041
23
0.000000
33
0.0
14
216.249129
24
0.000000
34
0.0
50
0.000000
100
AcDbRotatedDimension
0
DIMENSION
5
83
100
AcDbEntity
62
256
370
-1
6
ByLayer
1
total_minx
3
Standard
70
0
71
5
72
1
41
1.0
100
AcDbAlignedDimension
13
9.448041
23
0.000000
33
0.0
14
0.000000
24
0.000000
34
0.0
50
0.000000
100
AcDbRotatedDimension
0
DIMENSION
5
83
100
AcDbEntity
62
256
370
-1
6
ByLayer
1
total_maxx
3
Standard
70
0
71
5
72
1
41
1.0
100
AcDbAlignedDimension
13
0.000000
23
0.000000
33
0.0
14
216.249129
24
0.000000
34
0.0
50
0.000000
100
AcDbRotatedDimension
0
DIMENSION
5
83
100
AcDbEntity
62
256
370
-1
6
ByLayer
1
total_height
3
Standard
70
0
71
5
72
1
41
1.0
100
AcDbAlignedDimension
13
0.000000
23
-71.236403
33
0.0
14
0.000000
24
-3.992894
34
0.0
50
90.000000
100
AcDbRotatedDimension
0
DIMENSION
5
83
100
AcDbEntity
62
256
370
-1
6
ByLayer
1
total_miny
3
Standard
70
0
71
5
72
1
41
1.0
100
AcDbAlignedDimension
13
-71.236403
23
0.000000
33
0.0
14
0.000000
24
0.000000
34
0.0
50
0.000000
100
AcDbRotatedDimension
0
DIMENSION
5
83
100
AcDbEntity
62
256
370
-1
6
ByLayer
1
total_maxy
3
Standard
70
0
71
5
72
1
41
1.0
100
AcDbAlignedDimension
13
0.000000
23
0.000000
33
0.0
14
-3.992894
24
0.000000
34
0.0
50
0.000000
100
AcDbRotatedDimension
0
DIMENSION
8
Layer_1
5
83
100
AcDbEntity
62
256
370
-1
6
ByLayer
1
Layer_1_width
3
Standard
70
0
71
5
72
1
41
1.0
100
AcDbAlignedDimension
13
9.448041
23
0.000000
33
0.0
14
216.249129
24
0.000000
34
0.0
50
0.000000
100
AcDbRotatedDimension
0
DIMENSION
8
Layer_1
5
83
100
AcDbEntity
62
256
370
-1
6
ByLayer
1
Layer_1_minx
3
Standard
70
0
71
5
72
1
41
1.0
100
AcDbAlignedDimension
13
9.448041
23
0.000000
33
0.0
14
0.000000
24
0.000000
34
0.0
50
0.000000
100
AcDbRotatedDimension
0
DIMENSION
8
Layer_1
5
83
100
AcDbEntity
62
256
370
-1
6
ByLayer
1
Layer_1_maxx
3
Standard
70
0
71
5
72
1
41
1.0
100
AcDbAlignedDimension
13
0.000000
23
0.000000
33
0.0
14
216.249129
24
0.000000
34
0.0
50
0.000000
100
AcDbRotatedDimension
0
DIMENSION
8
Layer_1
5
83
100
AcDbEntity
62
256
370
-1
6
ByLayer
1
Layer_1_height
3
Standard
70
0
71
5
72
1
41
1.0
100
AcDbAlignedDimension
13
0.000000
23
-71.236403
33
0.0
14
0.000000
24
-3.992894
34
0.0
50
90.000000
100
AcDbRotatedDimension
0
DIMENSION
8
Layer_1
5
83
100
AcDbEntity
62
256
370
-1
6
ByLayer
1
Layer_1_miny
3
Standard
70
0
71
5
72
1
41
1.0
100
AcDbAlignedDimension
13
-71.236403
23
0.000000
33
0.0
14
0.000000
24
0.000000
34
0.0
50
0.000000
100
AcDbRotatedDimension
0
DIMENSION
8
Layer_1
5
83
100
AcDbEntity
62
256
370
-1
6
ByLayer
1
Layer_1_maxy
3
Standard
70
0
71
5
72
1
41
1.0
100
AcDbAlignedDimension
13
0.000000
23
0.000000
33
0.0
14
-3.992894
24
0.000000
34
0.0
50
0.000000
100
AcDbRotatedDimension
62
0
0
LWPOLYLINE
100
AcDbPolyline
8
Layer_1
90
34
70
0
10
81.565781
20
-16.667164
30
0.0
10
81.447416
20
-17.852834
30
0.0
10
81.107939
20
-18.957170
30
0.0
10
80.570778
20
-19.956516
30
0.0
10
79.859362
20
-20.827214
30
0.0
10
78.997118
20
-21.545605
30
0.0
10
78.007474
20
-22.088032
30
0.0
10
76.913860
20
-22.430837
30
0.0
10
75.739701
20
-22.550363
30
0.0
10
74.565543
20
-22.430837
30
0.0
10
73.471928
20
-22.088032
30
0.0
10
72.482285
20
-21.545605
30
0.0
10
71.620041
20
-20.827214
30
0.0
10
70.908624
20
-19.956516
30
0.0
10
70.371464
20
-18.957170
30
0.0
10
70.031987
20
-17.852834
30
0.0
10
69.913621
20
-16.667164
30
0.0
10
70.031987
20
-15.481494
30
0.0
10
70.371464
20
-14.377158
30
0.0
10
70.908624
20
-13.377812
30
0.0
10
71.620041
20
-12.507114
30
0.0
10
72.482285
20
-11.788723
30
0.0
10
73.471928
20
-11.246296
30
0.0
10
74.565543
20
-10.903491
30
0.0
10
75.739701
20
-10.783965
30
0.0
10
76.913860
20
-10.903491
30
0.0
10
78.007474
20
-11.246296
30
0.0
10
78.997118
20
-11.788723
30
0.0
10
79.859362
20
-12.507114
30
0.0
10
80.570778
20
-13.377812
30
0.0
10
81.107939
20
-14.377158
30
0.0
10
81.447416
20
-15.481494
30
0.0
10
81.565781
20
-16.667164
30
0.0
10
81.565781
20
-16.667164
30
0.0
62
0
0
LWPOLYLINE
100
AcDbPolyline
8
Layer_1
90
9
70
0
10
12.482637
20
-28.927611
30
0.0
10
11.631736
20
-28.084292
30
0.0
10
17.581810
20
-22.080717
30
0.0
10
15.473467
20
-19.991163
30
0.0
10
16.213713
20
-19.244262
30
0.0
10
21.271844
20
-24.257316
30
0.0
10
20.531599
20
-25.004217
30
0.0
10
18.432711
20
-22.924033
30
0.0
10
12.482637
20
-28.927611
30
0.0
62
0
0
LWPOLYLINE
100
AcDbPolyline
8
Layer_1
90
31
70
0
10
21.804253
20
-27.752381
30
0.0
10
22.358360
20
-28.398442
30
0.0
10
22.689081
20
-29.110212
30
0.0
10
22.793001
20
-29.861923
30
0.0
10
22.666704
20
-30.627811
30
0.0
10
22.335183
20
-31.385654
30
0.0
10
21.785813
20
-32.114772
30
0.0
10
21.307873
20
-32.633706
30
0.0
10
17.714504
20
-29.324196
30
0.0
10
17.113220
20
-30.222659
30
0.0
10
16.911433
20
-31.099986
30
0.0
10
17.119834
20
-31.929829
30
0.0
10
17.711498
20
-32.687390
30
0.0
10
18.673866
20
-33.410866
30
0.0
10
19.729241
20
-33.876169
30
0.0
10
19.034874
20
-34.630089
30
0.0
10
18.007326
20
-34.154226
30
0.0
10
16.996003
20
-33.385658
30
0.0
10
16.358477
20
-32.658245
30
0.0
10
15.953742
20
-31.864737
30
0.0
10
15.794230
20
-31.021109
30
0.0
10
15.892375
20
-30.143334
30
0.0
10
16.272847
20
-29.258659
30
0.0
10
16.940736
20
-28.376296
30
0.0
10
17.748922
20
-27.641243
30
0.0
10
18.586359
20
-27.159339
30
0.0
10
19.439134
20
-26.935863
30
0.0
10
20.273750
20
-26.958064
30
0.0
10
21.074039
20
-27.233673
30
0.0
10
21.804252
20
-27.752381
30
0.0
10
21.804253
20
-27.752381
30
0.0
62
0
0
LWPOLYLINE
100
AcDbPolyline
8
Layer_1
90
11
70
0
10
21.145184
20
-28.448330
30
0.0
10
20.499550
20
-28.039188
30
0.0
10
19.796337
20
-27.947995
30
0.0
10
19.081989
20
-28.158712
30
0.0
10
18.365329
20
-28.656847
30
0.0
10
21.038325
20
-31.118691
30
0.0
10
21.509691
20
-30.439881
30
0.0
10
21.716958
20
-29.753092
30
0.0
10
21.616133
20
-29.076615
30
0.0
10
21.145184
20
-28.448330
30
0.0
10
21.145184
20
-28.448330
30
0.0
62
0
0
LWPOLYLINE
100
AcDbPolyline
8
Layer_1
90
13
70
0
10
23.869648
20
-34.426311
30
0.0
10
24.250097
20
-30.173978
30
0.0
10
25.264715
20
-31.035617
30
0.0
10
24.924379
20
-34.274207
30
0.0
10
28.054917
20
-33.405123
30
0.0
10
29.059389
20
-34.258146
30
0.0
10
24.924852
20
-35.322414
30
0.0
10
24.542469
20
-39.782665
30
0.0
10
23.527850
20
-38.921027
30
0.0
10
23.890413
20
-35.491750
30
0.0
10
20.544872
20
-36.387809
30
0.0
10
19.540399
20
-35.534786
30
0.0
10
23.869648
20
-34.426311
30
0.0
62
0
0
LWPOLYLINE
100
AcDbPolyline
8
Layer_1
90
27
70
0
10
28.008730
20
-41.458580
30
0.0
10
28.461609
20
-41.765739
30
0.0
10
28.882673
20
-41.962903
30
0.0
10
28.329540
20
-42.662498
30
0.0
10
27.821056
20
-42.447128
30
0.0
10
27.257691
20
-42.086550
30
0.0
10
26.558816
20
-41.296418
30
0.0
10
26.394469
20
-40.822852
30
0.0
10
26.384680
20
-40.293310
30
0.0
10
26.569452
20
-39.705486
30
0.0
10
26.988791
20
-39.057069
30
0.0
10
29.564584
20
-35.799248
30
0.0
10
28.771012
20
-35.171812
30
0.0
10
29.117753
20
-34.733258
30
0.0
10
30.210718
20
-35.003489
30
0.0
10
31.517333
20
-34.102082
30
0.0
10
32.060303
20
-34.531382
30
0.0
10
31.044848
20
-35.815713
30
0.0
10
32.663316
20
-37.095354
30
0.0
10
32.101925
20
-37.805394
30
0.0
10
30.483457
20
-36.525753
30
0.0
10
27.924176
20
-39.762690
30
0.0
10
27.631283
20
-40.256545
30
0.0
10
27.561666
20
-40.714820
30
0.0
10
27.703792
20
-41.119908
30
0.0
10
28.008730
20
-41.458580
30
0.0
10
28.008730
20
-41.458580
30
0.0
62
0
0
LWPOLYLINE
100
AcDbPolyline
8
Layer_1
90
8
70
0
10
31.414424
20
-43.145250
30
0.0
10
31.401159
20
-43.318297
30
0.0
10
30.070216
20
-44.250325
30
0.0
10
28.616797
20
-45.123806
30
0.0
10
27.924521
20
-44.604799
30
0.0
10
29.220823
20
-43.497071
30
0.0
10
30.413300
20
-42.394686
30
0.0
10
31.414424
20
-43.145250
30
0.0
62
0
0
LWPOLYLINE
100
AcDbPolyline
8
Layer_1
90
25
70
0
10
41.933913
20
-43.515280
30
0.0
10
42.799248
20
-44.361043
30
0.0
10
43.195062
20
-45.447263
30
0.0
10
43.069516
20
-46.743744
30
0.0
10
42.348548
20
-48.205624
30
0.0
10
41.295993
20
-49.432871
30
0.0
10
40.146362
20
-50.069897
30
0.0
10
38.978266
20
-50.148613
30
0.0
10
37.848094
20
-49.686278
30
0.0
10
37.259623
20
-49.206486
30
0.0
10
36.872108
20
-48.675854
30
0.0
10
36.575117
20
-47.602987
30
0.0
10
36.508444
20
-47.559014
30
0.0
10
36.226651
20
-48.058821
30
0.0
10
35.930199
20
-48.580850
30
0.0
10
34.317906
20
-51.025512
30
0.0
10
33.340043
20
-50.380595
30
0.0
10
39.027041
20
-41.757608
30
0.0
10
39.827113
20
-42.285268
30
0.0
10
39.425468
20
-43.184394
30
0.0
10
39.469918
20
-43.213709
30
0.0
10
40.602366
20
-43.019797
30
0.0
10
41.239882
20
-43.153235
30
0.0
10
41.933913
20
-43.515280
30
0.0
10
41.933913
20
-43.515280
30
0.0
62
0
0
LWPOLYLINE
100
AcDbPolyline
8
Layer_1
90
20
70
0
10
41.213800
20
-44.220319
30
0.0
10
40.351675
20
-43.835105
30
0.0
10
39.587681
20
-43.881356
30
0.0
10
38.876486
20
-44.337146
30
0.0
10
38.172754
20
-45.180549
30
0.0
10
38.048167
20
-45.369455
30
0.0
10
37.493979
20
-46.403170
30
0.0
10
37.282478
20
-47.304122
30
0.0
10
37.510649
20
-48.088439
30
0.0
10
38.238625
20
-48.779822
30
0.0
10
38.775193
20
-49.030053
30
0.0
10
39.318136
20
-49.077197
30
0.0
10
39.861013
20
-48.924980
30
0.0
10
40.382723
20
-48.599347
30
0.0
10
41.344678
20
-47.527611
30
0.0
10
41.851111
20
-46.542127
30
0.0
10
42.021946
20
-45.630301
30
0.0
10
41.826979
20
-44.843972
30
0.0
10
41.213800
20
-44.220319
30
0.0
10
41.213800
20
-44.220319
30
0.0
62
0
0
LWPOLYLINE
100
AcDbPolyline
8
Layer_1
90
22
70
0
10
49.131855
20
-52.199546
30
0.0
10
48.145665
20
-53.442845
30
0.0
10
46.969429
20
-54.113272
30
0.0
10
45.693939
20
-54.213653
30
0.0
10
44.386974
20
-53.733406
30
0.0
10
43.667085
20
-53.190783
30
0.0
10
43.140667
20
-52.514387
30
0.0
10
42.843901
20
-51.721441
30
0.0
10
42.776563
20
-50.838775
30
0.0
10
42.966207
20
-49.878590
30
0.0
10
43.426984
20
-48.876091
30
0.0
10
44.405750
20
-47.632319
30
0.0
10
45.559706
20
-46.960465
30
0.0
10
46.833047
20
-46.870387
30
0.0
10
48.146964
20
-47.358534
30
0.0
10
48.873803
20
-47.909058
30
0.0
10
49.398070
20
-48.595757
30
0.0
10
49.705613
20
-49.383427
30
0.0
10
49.768876
20
-50.259866
30
0.0
10
49.589282
20
-51.202797
30
0.0
10
49.131855
20
-52.199546
30
0.0
10
49.131855
20
-52.199546
30
0.0
62
0
0
LWPOLYLINE
100
AcDbPolyline
8
Layer_1
90
18
70
0
10
44.473645
20
-49.485838
30
0.0
10
44.008817
20
-50.528343
30
0.0
10
43.887432
20
-51.470523
30
0.0
10
44.174622
20
-52.273296
30
0.0
10
44.899114
20
-52.907181
30
0.0
10
45.799244
20
-53.219743
30
0.0
10
46.636350
20
-53.071945
30
0.0
10
47.404710
20
-52.506668
30
0.0
10
48.085194
20
-51.589799
30
0.0
10
48.543796
20
-50.551371
30
0.0
10
48.646503
20
-49.621417
30
0.0
10
48.354289
20
-48.827272
30
0.0
10
47.628121
20
-48.196263
30
0.0
10
46.723915
20
-47.877475
30
0.0
10
45.897586
20
-48.019995
30
0.0
10
45.147905
20
-48.573044
30
0.0
10
44.473645
20
-49.485838
30
0.0
10
44.473645
20
-49.485838
30
0.0
62
0
0
LWPOLYLINE
100
AcDbPolyline
8
Layer_1
90
5
70
0
10
50.014714
20
-56.695357
30
0.0
10
48.979297
20
-56.147592
30
0.0
10
53.710002
20
-47.205347
30
0.0
10
54.745422
20
-47.753115
30
0.0
10
50.014714
20
-56.695357
30
0.0
62
0
0
LWPOLYLINE
100
AcDbPolyline
8
Layer_1
90
25
70
0
10
54.107153
20
-50.830291
30
0.0
10
55.234400
20
-51.373371
30
0.0
10
54.863345
20
-55.701119
30
0.0
10
54.742263
20
-56.780495
30
0.0
10
54.559474
20
-57.711935
30
0.0
10
54.607443
20
-57.735049
30
0.0
10
55.210826
20
-57.065342
30
0.0
10
56.008363
20
-56.237988
30
0.0
10
59.071840
20
-53.222164
30
0.0
10
60.211081
20
-53.771024
30
0.0
10
53.916673
20
-59.751550
30
0.0
10
53.129623
20
-60.380791
30
0.0
10
52.342184
20
-60.780826
30
0.0
10
51.517614
20
-60.882239
30
0.0
10
50.619175
20
-60.615616
30
0.0
10
50.132841
20
-60.336986
30
0.0
10
49.789977
20
-60.097924
30
0.0
10
50.194399
20
-59.258482
30
0.0
10
50.483081
20
-59.456664
30
0.0
10
50.867262
20
-59.671306
30
0.0
10
51.402484
20
-59.833123
30
0.0
10
51.904886
20
-59.787048
30
0.0
10
52.843170
20
-59.219584
30
0.0
10
53.589146
20
-58.529923
30
0.0
10
54.107153
20
-50.830291
30
0.0
62
0
0
LWPOLYLINE
100
AcDbPolyline
8
Layer_1
90
38
70
0
10
63.264573
20
-54.900584
30
0.0
10
64.331449
20
-55.629807
30
0.0
10
64.691987
20
-56.142590
30
0.0
10
64.919160
20
-56.751474
30
0.0
10
64.980668
20
-56.776902
30
0.0
10
65.489410
20
-55.964562
30
0.0
10
66.350484
20
-56.320605
30
0.0
10
63.578432
20
-63.024693
30
0.0
10
62.884544
20
-64.189001
30
0.0
10
61.972735
20
-64.852683
30
0.0
10
60.838124
20
-65.010120
30
0.0
10
59.451232
20
-64.645520
30
0.0
10
58.175176
20
-63.995451
30
0.0
10
57.250059
20
-63.245619
30
0.0
10
57.662053
20
-62.249233
30
0.0
10
58.596629
20
-63.089401
30
0.0
10
59.884039
20
-63.772974
30
0.0
10
60.692690
20
-63.959696
30
0.0
10
61.421095
20
-63.817952
30
0.0
10
62.031728
20
-63.386241
30
0.0
10
62.472635
20
-62.668288
30
0.0
10
62.579448
20
-62.409965
30
0.0
10
62.764684
20
-61.996814
30
0.0
10
62.952049
20
-61.613353
30
0.0
10
62.902846
20
-61.593005
30
0.0
10
62.345878
20
-61.873156
30
0.0
10
61.751227
20
-61.991882
30
0.0
10
61.118892
20
-61.949184
30
0.0
10
60.448873
20
-61.745060
30
0.0
10
59.400775
20
-61.048809
30
0.0
10
58.815103
20
-60.018010
30
0.0
10
58.725060
20
-58.720411
30
0.0
10
59.139252
20
-57.213585
30
0.0
10
59.901274
20
-55.875788
30
0.0
10
60.885239
20
-55.011472
30
0.0
10
62.036235
20
-54.666356
30
0.0
10
63.264573
20
-54.900579
30
0.0
10
63.264573
20
-54.900584
30
0.0
62
0
0
LWPOLYLINE
100
AcDbPolyline
8
Layer_1
90
19
70
0
10
63.035798
20
-55.871900
30
0.0
10
62.235220
20
-55.735327
30
0.0
10
61.481826
20
-56.007178
30
0.0
10
60.812402
20
-56.659453
30
0.0
10
60.253561
20
-57.688748
30
0.0
10
59.919217
20
-58.810869
30
0.0
10
59.923279
20
-59.741618
30
0.0
10
60.275384
20
-60.448973
30
0.0
10
60.975003
20
-60.925512
30
0.0
10
61.890757
20
-61.149318
30
0.0
10
62.645242
20
-60.996754
30
0.0
10
63.277790
20
-60.433662
30
0.0
10
63.817556
20
-59.450495
30
0.0
10
63.924369
20
-59.192174
30
0.0
10
64.284351
20
-57.990628
30
0.0
10
64.255481
20
-57.067625
30
0.0
10
63.838913
20
-56.376827
30
0.0
10
63.035798
20
-55.871900
30
0.0
10
63.035798
20
-55.871900
30
0.0
62
0
0
LWPOLYLINE
100
AcDbPolyline
8
Layer_1
90
22
70
0
10
72.772510
20
-62.323819
30
0.0
10
72.051852
20
-63.737685
30
0.0
10
71.031546
20
-64.627616
30
0.0
10
69.801140
20
-64.978413
30
0.0
10
68.424987
20
-64.766294
30
0.0
10
67.611957
20
-64.376856
30
0.0
10
66.962099
20
-63.818005
30
0.0
10
66.514289
20
-63.099466
30
0.0
10
66.273615
20
-62.247580
30
0.0
10
66.269503
20
-61.268856
30
0.0
10
66.522789
20
-60.195000
30
0.0
10
67.236072
20
-58.782139
30
0.0
10
68.234258
20
-57.895222
30
0.0
10
69.464595
20
-57.554947
30
0.0
10
70.849126
20
-57.773435
30
0.0
10
71.670534
20
-58.169241
30
0.0
10
72.320322
20
-58.738615
30
0.0
10
72.777652
20
-59.449851
30
0.0
10
73.013099
20
-60.296439
30
0.0
10
73.023650
20
-61.256263
30
0.0
10
72.772510
20
-62.323819
30
0.0
10
72.772510
20
-62.323819
30
0.0
62
0
0
LWPOLYLINE
100
AcDbPolyline
8
Layer_1
90
18
70
0
10
67.669410
20
-60.585570
30
0.0
10
67.420072
20
-61.699441
30
0.0
10
67.487532
20
-62.647009
30
0.0
10
67.927899
20
-63.377077
30
0.0
10
68.763501
20
-63.855061
30
0.0
10
69.707683
20
-63.983318
30
0.0
10
70.498990
20
-63.672791
30
0.0
10
71.140293
20
-62.966646
30
0.0
10
71.625886
20
-61.933249
30
0.0
10
71.869929
20
-60.824605
30
0.0
10
71.786581
20
-59.892717
30
0.0
10
71.342995
20
-59.172101
30
0.0
10
70.506319
20
-58.697269
30
0.0
10
69.556911
20
-58.563715
30
0.0
10
68.775123
20
-58.866936
30
0.0
10
68.149707
20
-59.557400
30
0.0
10
67.669410
20
-60.585570
30
0.0
10
67.669410
20
-60.585570
30
0.0
62
0
0
LWPOLYLINE
100
AcDbPolyline
8
Layer_1
90
26
70
0
10
78.602165
20
-60.118729
30
0.0
10
79.644551
20
-60.560975
30
0.0
10
80.303630
20
-61.224078
30
0.0
10
80.565193
20
-62.135230
30
0.0
10
80.415040
20
-63.321630
30
0.0
10
79.208749
20
-67.807880
30
0.0
10
78.090398
20
-67.507169
30
0.0
10
79.275951
20
-63.098048
30
0.0
10
79.374614
20
-62.346644
30
0.0
10
79.224724
20
-61.750674
30
0.0
10
78.826279
20
-61.310138
30
0.0
10
78.179281
20
-61.025035
30
0.0
10
77.168768
20
-60.925622
30
0.0
10
76.425346
20
-61.242626
30
0.0
10
75.886712
20
-61.938616
30
0.0
10
75.490564
20
-62.976167
30
0.0
10
74.529679
20
-66.549741
30
0.0
10
73.398476
20
-66.245576
30
0.0
10
75.251118
20
-59.355519
30
0.0
10
76.163794
20
-59.600925
30
0.0
10
76.078585
20
-60.584244
30
0.0
10
76.142858
20
-60.601516
30
0.0
10
76.667510
20
-60.239473
30
0.0
10
77.282686
20
-60.053395
30
0.0
10
78.602165
20
-60.118721
30
0.0
10
78.602165
20
-60.118729
30
0.0
62
0
0
LWPOLYLINE
100
AcDbPolyline
8
Layer_1
90
41
70
0
10
86.303355
20
-67.293504
30
0.0
10
85.930612
20
-68.147743
30
0.0
10
85.230710
20
-68.676489
30
0.0
10
84.263662
20
-68.885290
30
0.0
10
83.089479
20
-68.779695
30
0.0
10
81.848901
20
-68.402240
30
0.0
10
80.990223
20
-67.885891
30
0.0
10
81.204748
20
-66.842829
30
0.0
10
82.128247
20
-67.440457
30
0.0
10
83.305946
20
-67.859340
30
0.0
10
84.072983
20
-67.945751
30
0.0
10
84.626969
20
-67.845652
30
0.0
10
84.988711
20
-67.573512
30
0.0
10
85.173648
20
-67.169879
30
0.0
10
85.126765
20
-66.671004
30
0.0
10
84.691045
20
-66.146519
30
0.0
10
83.731481
20
-65.459935
30
0.0
10
82.678338
20
-64.699744
30
0.0
10
82.063872
20
-63.921059
30
0.0
10
81.954108
20
-63.463610
30
0.0
10
81.996178
20
-62.928672
30
0.0
10
82.337019
20
-62.179987
30
0.0
10
82.994847
20
-61.707138
30
0.0
10
83.910229
20
-61.518288
30
0.0
10
84.997651
20
-61.616232
30
0.0
10
86.157319
20
-61.990636
30
0.0
10
87.130659
20
-62.544156
30
0.0
10
86.551801
20
-63.376389
30
0.0
10
85.690442
20
-62.873080
30
0.0
10
84.726351
20
-62.538898
30
0.0
10
84.091706
20
-62.469522
30
0.0
10
83.595907
20
-62.551005
30
0.0
10
83.267801
20
-62.758717
30
0.0
10
83.104801
20
-63.088720
30
0.0
10
83.172399
20
-63.619036
30
0.0
10
83.652597
20
-64.125489
30
0.0
10
84.630562
20
-64.788680
30
0.0
10
85.660309
20
-65.530468
30
0.0
10
86.246019
20
-66.316829
30
0.0
10
86.303355
20
-67.293496
30
0.0
10
86.303355
20
-67.293504
30
0.0
62
0
0
LWPOLYLINE
100
AcDbPolyline
8
Layer_1
90
8
70
0
10
89.171884
20
-68.187104
30
0.0
10
89.240264
20
-68.346622
30
0.0
10
88.492361
20
-69.789094
30
0.0
10
87.608794
20
-71.236403
30
0.0
10
86.754863
20
-71.097055
30
0.0
10
87.390687
20
-69.514906
30
0.0
10
87.936970
20
-67.985584
30
0.0
10
89.171884
20
-68.187104
30
0.0
62
0
0
LWPOLYLINE
100
AcDbPolyline
8
Layer_1
90
32
70
0
10
97.883898
20
-63.497398
30
0.0
10
99.001857
20
-63.738986
30
0.0
10
99.756697
20
-64.236050
30
0.0
10
100.159358
20
-65.016266
30
0.0
10
100.220774
20
-66.107321
30
0.0
10
99.796735
20
-70.947359
30
0.0
10
98.948071
20
-70.873008
30
0.0
10
98.810939
20
-69.845468
30
0.0
10
98.757898
20
-69.840811
30
0.0
10
97.701114
20
-70.616764
30
0.0
10
97.072840
20
-70.772175
30
0.0
10
96.271120
20
-70.772088
30
0.0
10
95.397026
20
-70.568565
30
0.0
10
94.710761
20
-70.127619
30
0.0
10
94.291184
20
-69.426094
30
0.0
10
94.214834
20
-68.467351
30
0.0
10
94.505879
20
-67.547477
30
0.0
10
95.193132
20
-66.909515
30
0.0
10
96.293463
20
-66.551603
30
0.0
10
97.821411
20
-66.498397
30
0.0
10
99.031589
20
-66.564335
30
0.0
10
99.068766
20
-66.140003
30
0.0
10
99.038557
20
-65.379055
30
0.0
10
98.792259
20
-64.873099
30
0.0
10
98.350799
20
-64.573860
30
0.0
10
97.735113
20
-64.433063
30
0.0
10
96.659181
20
-64.512509
30
0.0
10
95.685164
20
-64.801315
30
0.0
10
95.403811
20
-63.894764
30
0.0
10
96.541596
20
-63.566856
30
0.0
10
97.883898
20
-63.497387
30
0.0
10
97.883898
20
-63.497398
30
0.0
62
0
0
LWPOLYLINE
100
AcDbPolyline
8
Layer_1
90
15
70
0
10
98.947461
20
-67.372069
30
0.0
10
97.896406
20
-67.320070
30
0.0
10
96.760973
20
-67.354216
30
0.0
10
96.016039
20
-67.582920
30
0.0
10
95.598909
20
-67.997347
30
0.0
10
95.420366
20
-68.586342
30
0.0
10
95.464566
20
-69.111338
30
0.0
10
95.701722
20
-69.492893
30
0.0
10
96.104441
20
-69.738630
30
0.0
10
96.618812
20
-69.853847
30
0.0
10
97.445070
20
-69.802635
30
0.0
10
98.146957
20
-69.493328
30
0.0
10
98.660204
20
-68.896911
30
0.0
10
98.891697
20
-68.008565
30
0.0
10
98.947461
20
-67.372069
30
0.0
62
0
0
LWPOLYLINE
100
AcDbPolyline
8
Layer_1
90
26
70
0
10
105.597127
20
-63.890660
30
0.0
10
106.714735
20
-64.072591
30
0.0
10
107.512482
20
-64.560123
30
0.0
10
107.983031
20
-65.383045
30
0.0
10
108.119043
20
-66.571148
30
0.0
10
108.013142
20
-71.215538
30
0.0
10
106.855370
20
-71.189150
30
0.0
10
106.959451
20
-66.624606
30
0.0
10
106.876769
20
-65.871276
30
0.0
10
106.589578
20
-65.327982
30
0.0
10
106.097879
20
-64.994722
30
0.0
10
105.401672
20
-64.871498
30
0.0
10
104.396472
20
-65.015009
30
0.0
10
103.749650
20
-65.499559
30
0.0
10
103.391794
20
-66.303591
30
0.0
10
103.253492
20
-67.405552
30
0.0
10
103.169136
20
-71.105096
30
0.0
10
101.998058
20
-71.078398
30
0.0
10
102.160702
20
-63.945465
30
0.0
10
103.105551
20
-63.966999
30
0.0
10
103.256399
20
-64.942407
30
0.0
10
103.322938
20
-64.943818
30
0.0
10
103.746553
20
-64.467492
30
0.0
10
104.299907
20
-64.140588
30
0.0
10
105.597127
20
-63.890559
30
0.0
10
105.597127
20
-63.890660
30
0.0
62
0
0
LWPOLYLINE
100
AcDbPolyline
8
Layer_1
90
25
70
0
10
112.746135
20
-71.210771
30
0.0
10
111.539225
20
-71.033830
30
0.0
10
110.578175
20
-70.386437
30
0.0
10
109.929037
20
-69.255706
30
0.0
10
109.659036
20
-67.655341
30
0.0
10
109.787986
20
-66.037492
30
0.0
10
110.335706
20
-64.854303
30
0.0
10
111.245529
20
-64.104926
30
0.0
10
112.435363
20
-63.816275
30
0.0
10
113.186750
20
-63.859956
30
0.0
10
113.791910
20
-64.063270
30
0.0
10
114.688945
20
-64.770096
30
0.0
10
114.768734
20
-64.766596
30
0.0
10
114.693392
20
-64.263589
30
0.0
10
114.642900
20
-63.719518
30
0.0
10
114.518166
20
-60.873663
30
0.0
10
115.688426
20
-60.822369
30
0.0
10
116.131399
20
-70.929153
30
0.0
10
115.187214
20
-70.970538
30
0.0
10
114.972369
20
-70.020629
30
0.0
10
114.919173
20
-70.022887
30
0.0
10
114.101883
20
-70.831498
30
0.0
10
113.503972
20
-71.097534
30
0.0
10
112.746135
20
-71.210695
30
0.0
10
112.746135
20
-71.210771
30
0.0
62
0
0
LWPOLYLINE
100
AcDbPolyline
8
Layer_1
90
19
70
0
10
112.889764
20
-70.231827
30
0.0
10
113.843871
20
-70.036783
30
0.0
10
114.445463
20
-69.550740
30
0.0
10
114.760302
20
-68.754159
30
0.0
10
114.828724
20
-67.655265
30
0.0
10
114.819410
20
-67.442492
30
0.0
10
114.658260
20
-66.273715
30
0.0
10
114.291384
20
-65.427070
30
0.0
10
113.642754
20
-64.915879
30
0.0
10
112.637505
20
-64.780064
30
0.0
10
111.817986
20
-65.005850
30
0.0
10
111.247801
20
-65.600439
30
0.0
10
110.937040
20
-66.490108
30
0.0
10
110.870368
20
-67.628897
30
0.0
10
111.036417
20
-68.757487
30
0.0
10
111.422657
20
-69.589960
30
0.0
10
112.044254
20
-70.092344
30
0.0
10
112.889775
20
-70.231827
30
0.0
10
112.889764
20
-70.231827
30
0.0
62
0
0
LWPOLYLINE
100
AcDbPolyline
8
Layer_1
90
32
70
0
10
124.686966
20
-70.159316
30
0.0
10
123.780208
20
-70.179370
30
0.0
10
122.960881
20
-69.993487
30
0.0
10
122.247509
20
-69.589200
30
0.0
10
121.658611
20
-68.954046
30
0.0
10
121.232935
20
-68.076300
30
0.0
10
120.982827
20
-66.947652
30
0.0
10
120.935083
20
-65.749189
30
0.0
10
121.130164
20
-64.767607
30
0.0
10
121.553165
20
-63.991412
30
0.0
10
122.162770
20
-63.412531
30
0.0
10
122.927570
20
-63.021607
30
0.0
10
123.816152
20
-62.809284
30
0.0
10
124.861213
20
-62.794806
30
0.0
10
125.727054
20
-62.951179
30
0.0
10
125.495358
20
-63.960990
30
0.0
10
124.727050
20
-63.832257
30
0.0
10
123.921320
20
-63.829181
30
0.0
10
123.030476
20
-64.114781
30
0.0
10
122.443710
20
-64.701611
30
0.0
10
122.161022
20
-65.589671
30
0.0
10
122.182413
20
-66.778962
30
0.0
10
122.454341
20
-67.894719
30
0.0
10
122.938644
20
-68.680988
30
0.0
10
123.640952
20
-69.103486
30
0.0
10
124.543907
20
-69.157746
30
0.0
10
125.545009
20
-68.907369
30
0.0
10
126.325884
20
-68.511008
30
0.0
10
126.459161
20
-69.540690
30
0.0
10
125.702980
20
-69.920431
30
0.0
10
124.686966
20
-70.159316
30
0.0
10
124.686966
20
-70.159316
30
0.0
62
0
0
LWPOLYLINE
100
AcDbPolyline
8
Layer_1
90
25
70
0
10
132.724398
20
-61.427493
30
0.0
10
134.032399
20
-68.441358
30
0.0
10
133.090240
20
-68.617061
30
0.0
10
132.746866
20
-67.719710
30
0.0
10
132.694522
20
-67.729475
30
0.0
10
132.377940
20
-68.282749
30
0.0
10
131.903659
20
-68.716483
30
0.0
10
130.667641
20
-69.204259
30
0.0
10
129.527304
20
-69.261200
30
0.0
10
128.644893
20
-68.958607
30
0.0
10
128.015750
20
-68.253339
30
0.0
10
127.640097
20
-67.128430
30
0.0
10
126.783550
20
-62.535395
30
0.0
10
127.948165
20
-62.318209
30
0.0
10
128.790071
20
-66.832731
30
0.0
10
129.024051
20
-67.547373
30
0.0
10
129.413634
20
-68.016346
30
0.0
10
129.958820
20
-68.239651
30
0.0
10
130.659609
20
-68.217288
30
0.0
10
131.613796
20
-67.870086
30
0.0
10
132.147121
20
-67.262852
30
0.0
10
132.341759
20
-66.400575
30
0.0
10
132.253713
20
-65.293119
30
0.0
10
131.572869
20
-61.642247
30
0.0
10
132.724398
20
-61.427493
30
0.0
62
0
0
LWPOLYLINE
100
AcDbPolyline
8
Layer_1
90
22
70
0
10
137.772772
20
-60.094103
30
0.0
10
138.193227
20
-60.020832
30
0.0
10
138.606931
20
-59.976552
30
0.0
10
138.715530
20
-61.059221
30
0.0
10
138.324618
20
-61.084367
30
0.0
10
137.943003
20
-61.148341
30
0.0
10
137.446239
20
-61.345952
30
0.0
10
137.017475
20
-61.684690
30
0.0
10
136.679640
20
-62.131691
30
0.0
10
136.461861
20
-62.679984
30
0.0
10
136.392763
20
-63.291917
30
0.0
10
136.481278
20
-63.961930
30
0.0
10
137.367529
20
-67.664330
30
0.0
10
136.228328
20
-67.937022
30
0.0
10
134.567382
20
-60.998261
30
0.0
10
135.499455
20
-60.775147
30
0.0
10
135.932590
20
-62.012816
30
0.0
10
135.984372
20
-62.000426
30
0.0
10
136.603266
20
-60.812051
30
0.0
10
137.117913
20
-60.360367
30
0.0
10
137.772758
20
-60.094117
30
0.0
10
137.772772
20
-60.094103
30
0.0
62
0
0
LWPOLYLINE
100
AcDbPolyline
8
Layer_1
90
15
70
0
10
143.065136
20
-66.192377
30
0.0
10
138.505085
20
-60.075778
30
0.0
10
139.708094
20
-59.731684
30
0.0
10
142.323800
20
-63.358528
30
0.0
10
142.720732
20
-63.923398
30
0.0
10
143.115851
20
-64.530320
30
0.0
10
143.393914
20
-65.018432
30
0.0
10
143.445106
20
-65.003784
30
0.0
10
143.435792
20
-64.438801
30
0.0
10
143.462999
20
-63.711080
30
0.0
10
143.501197
20
-63.021749
30
0.0
10
143.803421
20
-58.560293
30
0.0
10
145.006427
20
-58.216199
30
0.0
10
144.357714
20
-65.822655
30
0.0
10
143.065136
20
-66.192377
30
0.0
62
0
0
LWPOLYLINE
100
AcDbPolyline
8
Layer_1
90
31
70
0
10
148.311088
20
-56.951197
30
0.0
10
149.143515
20
-56.773729
30
0.0
10
149.926765
20
-56.823858
30
0.0
10
150.636576
20
-57.092257
30
0.0
10
151.248691
20
-57.569594
30
0.0
10
151.755551
20
-58.223293
30
0.0
10
152.132961
20
-59.054548
30
0.0
10
152.359978
20
-59.722515
30
0.0
10
147.734613
20
-61.294504
30
0.0
10
148.235891
20
-62.252368
30
0.0
10
148.909744
20
-62.849311
30
0.0
10
149.738153
20
-63.063344
30
0.0
10
150.686460
20
-62.906244
30
0.0
10
151.782193
20
-62.407315
30
0.0
10
152.695721
20
-61.703190
30
0.0
10
153.025540
20
-62.673634
30
0.0
10
152.116048
20
-63.348269
30
0.0
10
150.957297
20
-63.868616
30
0.0
10
150.013522
20
-64.080413
30
0.0
10
149.123084
20
-64.056170
30
0.0
10
148.305960
20
-63.792609
30
0.0
10
147.582125
20
-63.286459
30
0.0
10
146.987311
20
-62.529093
30
0.0
10
146.532038
20
-61.520448
30
0.0
10
146.273249
20
-60.459084
30
0.0
10
146.250747
20
-59.493150
30
0.0
10
146.462514
20
-58.637394
30
0.0
10
146.881325
20
-57.915124
30
0.0
10
147.506235
20
-57.344239
30
0.0
10
148.311088
20
-56.951197
30
0.0
10
148.311088
20
-56.951197
30
0.0
62
0
0
LWPOLYLINE
100
AcDbPolyline
8
Layer_1
90
11
70
0
10
148.606885
20
-57.862910
30
0.0
10
147.938712
20
-58.234102
30
0.0
10
147.522187
20
-58.807977
30
0.0
10
147.365446
20
-59.536074
30
0.0
10
147.459985
20
-60.403715
30
0.0
10
150.900652
20
-59.234361
30
0.0
10
150.530099
20
-58.495674
30
0.0
10
150.026181
20
-57.985079
30
0.0
10
149.383917
20
-57.749961
30
0.0
10
148.606885
20
-57.862910
30
0.0
10
148.606885
20
-57.862910
30
0.0
62
0
0
LWPOLYLINE
100
AcDbPolyline
8
Layer_1
90
41
70
0
10
158.740009
20
-58.709549
30
0.0
10
158.892913
20
-59.628941
30
0.0
10
158.594134
20
-60.453662
30
0.0
10
157.897019
20
-61.155667
30
0.0
10
156.854912
20
-61.706910
30
0.0
10
155.608999
20
-62.066365
30
0.0
10
154.607638
20
-62.101273
30
0.0
10
154.219182
20
-61.109758
30
0.0
10
155.319185
20
-61.107783
30
0.0
10
156.534945
20
-60.817325
30
0.0
10
157.225201
20
-60.471839
30
0.0
10
157.635186
20
-60.086048
30
0.0
10
157.790229
20
-59.660750
30
0.0
10
157.725372
20
-59.221531
30
0.0
10
157.414234
20
-58.828762
30
0.0
10
156.763093
20
-58.626383
30
0.0
10
155.584381
20
-58.573515
30
0.0
10
154.287093
20
-58.509916
30
0.0
10
153.347567
20
-58.191781
30
0.0
10
153.006275
20
-57.868011
30
0.0
10
152.750077
20
-57.396532
30
0.0
10
152.627938
20
-56.583033
30
0.0
10
152.921894
20
-55.828108
30
0.0
10
153.586557
20
-55.170983
30
0.0
10
154.551747
20
-54.660600
30
0.0
10
155.728151
20
-54.342671
30
0.0
10
156.845914
20
-54.276456
30
0.0
10
156.813995
20
-55.289701
30
0.0
10
155.817488
20
-55.337002
30
0.0
10
154.826995
20
-55.582098
30
0.0
10
154.257035
20
-55.869729
30
0.0
10
153.885700
20
-56.208210
30
0.0
10
153.723756
20
-56.561157
30
0.0
10
153.766890
20
-56.926683
30
0.0
10
154.112527
20
-57.334528
30
0.0
10
154.791136
20
-57.497551
30
0.0
10
155.972533
20
-57.520778
30
0.0
10
157.240176
20
-57.581696
30
0.0
10
158.159772
20
-57.921934
30
0.0
10
158.740009
20
-58.709645
30
0.0
10
158.740009
20
-58.709549
30
0.0
62
0
0
LWPOLYLINE
100
AcDbPolyline
8
Layer_1
90
8
70
0
10
161.656920
20
-57.916987
30
0.0
10
161.800252
20
-58.014850
30
0.0
10
161.943759
20
-59.633335
30
0.0
10
161.975411
20
-61.328737
30
0.0
10
161.180182
20
-61.669659
30
0.0
10
160.867130
20
-59.993513
30
0.0
10
160.506895
20
-58.410009
30
0.0
10
161.656920
20
-57.916987
30
0.0
62
0
0
LWPOLYLINE
100
AcDbPolyline
8
Layer_1
90
22
70
0
10
171.414810
20
-51.035021
30
0.0
10
171.911233
20
-52.542312
30
0.0
10
171.824642
20
-53.893424
30
0.0
10
171.207304
20
-55.014069
30
0.0
10
170.087646
20
-55.841813
30
0.0
10
169.238621
20
-56.144859
30
0.0
10
168.384209
20
-56.212751
30
0.0
10
167.558688
20
-56.024736
30
0.0
10
166.784347
20
-55.595749
30
0.0
10
166.086527
20
-54.909480
30
0.0
10
165.502412
20
-53.973462
30
0.0
10
165.001512
20
-52.472112
30
0.0
10
165.074668
20
-51.138828
30
0.0
10
165.699429
20
-50.025640
30
0.0
10
166.829509
20
-49.196433
30
0.0
10
167.688953
20
-48.891924
30
0.0
10
168.550788
20
-48.831492
30
0.0
10
169.377825
20
-49.007605
30
0.0
10
170.144725
20
-49.436573
30
0.0
10
170.833659
20
-50.104961
30
0.0
10
171.414810
20
-51.035021
30
0.0
10
171.414810
20
-51.035021
30
0.0
62
0
0
LWPOLYLINE
100
AcDbPolyline
8
Layer_1
90
18
70
0
10
166.587147
20
-53.434353
30
0.0
10
167.202454
20
-54.395745
30
0.0
10
167.922758
20
-55.015096
30
0.0
10
168.751222
20
-55.216514
30
0.0
10
169.679013
20
-54.959792
30
0.0
10
170.434945
20
-54.379710
30
0.0
10
170.771676
20
-53.599196
30
0.0
10
170.721879
20
-52.646603
30
0.0
10
170.330077
20
-51.574130
30
0.0
10
169.714752
20
-50.620176
30
0.0
10
168.994393
20
-50.023147
30
0.0
10
168.170372
20
-49.830671
30
0.0
10
167.244065
20
-50.090372
30
0.0
10
166.480690
20
-50.670437
30
0.0
10
166.145475
20
-51.439050
30
0.0
10
166.195326
20
-52.369319
30
0.0
10
166.587147
20
-53.434353
30
0.0
10
166.587147
20
-53.434353
30
0.0
62
0
0
LWPOLYLINE
100
AcDbPolyline
8
Layer_1
90
26
70
0
10
170.749663
20
-43.958473
30
0.0
10
172.193591
20
-46.552005
30
0.0
10
172.621067
20
-47.456646
30
0.0
10
172.690849
20
-47.417795
30
0.0
10
172.812469
20
-46.801620
30
0.0
10
173.103512
20
-46.243471
30
0.0
10
174.095664
20
-45.371162
30
0.0
10
175.160312
20
-44.957440
30
0.0
10
176.097997
20
-44.972427
30
0.0
10
176.924250
20
-45.430335
30
0.0
10
177.644284
20
-46.381577
30
0.0
10
179.904065
20
-50.440514
30
0.0
10
178.892237
20
-51.003841
30
0.0
10
176.671309
20
-47.014683
30
0.0
10
176.218649
20
-46.406867
30
0.0
10
175.695945
20
-46.083713
30
0.0
10
175.103198
20
-46.045221
30
0.0
10
174.440407
20
-46.291390
30
0.0
10
173.639069
20
-46.931777
30
0.0
10
173.328491
20
-47.687433
30
0.0
10
173.435619
20
-48.557131
30
0.0
10
173.877094
20
-49.575855
30
0.0
10
175.670673
20
-52.797419
30
0.0
10
174.647217
20
-53.367220
30
0.0
10
169.726206
20
-44.528274
30
0.0
10
170.749663
20
-43.958473
30
0.0
62
0
0
LWPOLYLINE
100
AcDbPolyline
8
Layer_1
90
46
70
0
10
187.323456
20
-37.190714
30
0.0
10
188.293554
20
-36.739889
30
0.0
10
189.179748
20
-36.718649
30
0.0
10
190.001279
20
-37.150191
30
0.0
10
190.777385
20
-38.057709
30
0.0
10
193.330139
20
-41.939075
30
0.0
10
192.362576
20
-42.575435
30
0.0
10
189.839081
20
-38.738553
30
0.0
10
189.356905
20
-38.170450
30
0.0
10
188.839318
20
-37.878560
30
0.0
10
188.286319
20
-37.862882
30
0.0
10
187.697909
20
-38.123416
30
0.0
10
187.035063
20
-38.738602
30
0.0
10
186.781463
20
-39.443101
30
0.0
10
186.910334
20
-40.238592
30
0.0
10
187.372656
20
-41.141382
30
0.0
10
189.537744
20
-44.433315
30
0.0
10
188.570181
20
-45.069675
30
0.0
10
186.046683
20
-41.232794
30
0.0
10
185.563812
20
-40.665148
30
0.0
10
185.044140
20
-40.374629
30
0.0
10
184.487666
20
-40.361236
30
0.0
10
183.894391
20
-40.624969
30
0.0
10
183.224006
20
-41.265029
30
0.0
10
183.014518
20
-42.000260
30
0.0
10
183.202133
20
-42.848728
30
0.0
10
183.723040
20
-43.828490
30
0.0
10
185.756468
20
-46.920240
30
0.0
10
184.777784
20
-47.563916
30
0.0
10
180.857220
20
-41.602846
30
0.0
10
181.646838
20
-41.083518
30
0.0
10
182.325374
20
-41.800292
30
0.0
10
182.380983
20
-41.763719
30
0.0
10
182.439305
20
-41.143839
30
0.0
10
182.672617
20
-40.584120
30
0.0
10
183.531061
20
-39.684954
30
0.0
10
184.211685
20
-39.326929
30
0.0
10
184.852262
20
-39.174479
30
0.0
10
185.452791
20
-39.227604
30
0.0
10
186.013273
20
-39.486304
30
0.0
10
186.068880
20
-39.449731
30
0.0
10
186.129406
20
-38.772640
30
0.0
10
186.383357
20
-38.159518
30
0.0
10
186.793715
20
-37.626749
30
0.0
10
187.323456
20
-37.190714
30
0.0
10
187.323456
20
-37.190714
30
0.0
62
0
0
LWPOLYLINE
100
AcDbPolyline
8
Layer_1
90
25
70
0
10
190.006698
20
-35.508647
30
0.0
10
191.017940
20
-34.771748
30
0.0
10
194.656851
20
-37.143538
30
0.0
10
195.550945
20
-37.760233
30
0.0
10
196.285499
20
-38.361417
30
0.0
10
196.328532
20
-38.330059
30
0.0
10
196.023374
20
-37.481851
30
0.0
10
195.671011
20
-36.388043
30
0.0
10
194.460458
20
-32.263159
30
0.0
10
195.482458
20
-31.518423
30
0.0
10
197.779386
20
-39.891614
30
0.0
10
197.962100
20
-40.882578
30
0.0
10
197.942621
20
-41.765590
30
0.0
10
197.642412
20
-42.540234
30
0.0
10
196.982932
20
-43.206094
30
0.0
10
196.507583
20
-43.503074
30
0.0
10
196.134891
20
-43.692304
30
0.0
10
195.586138
20
-42.939250
30
0.0
10
195.897201
20
-42.778460
30
0.0
10
196.267888
20
-42.541277
30
0.0
10
196.663385
20
-42.146019
30
0.0
10
196.860149
20
-41.681462
30
0.0
10
196.803337
20
-40.586398
30
0.0
10
196.547966
20
-39.603087
30
0.0
10
190.006698
20
-35.508647
30
0.0
62
0
0
LWPOLYLINE
100
AcDbPolyline
8
Layer_1
90
5
70
0
10
199.762979
20
-33.826549
30
0.0
10
199.160985
20
-34.288374
30
0.0
10
194.740513
20
-29.072981
30
0.0
10
195.870573
20
-28.206042
30
0.0
10
199.762979
20
-33.826549
30
0.0
62
0
0
LWPOLYLINE
100
AcDbPolyline
8
Layer_1
90
14
70
0
10
199.992928
20
-36.116362
30
0.0
10
199.785235
20
-35.747221
30
0.0
10
199.761718
20
-35.421336
30
0.0
10
200.104880
20
-34.906418
30
0.0
10
200.680549
20
-34.716441
30
0.0
10
200.997143
20
-34.817496
30
0.0
10
201.302530
20
-35.111687
30
0.0
10
201.503533
20
-35.477573
30
0.0
10
201.523182
20
-35.814818
30
0.0
10
201.198680
20
-36.332194
30
0.0
10
200.604349
20
-36.519711
30
0.0
10
200.291623
20
-36.407302
30
0.0
10
199.992928
20
-36.116362
30
0.0
10
199.992928
20
-36.116362
30
0.0
62
0
0
LWPOLYLINE
100
AcDbPolyline
8
Layer_1
90
33
70
0
10
9.448041
20
-25.881773
30
0.0
10
15.473180
20
-31.791734
30
0.0
10
21.583319
20
-37.268230
30
0.0
10
27.772782
20
-42.315987
30
0.0
10
34.035889
20
-46.939729
30
0.0
10
40.366964
20
-51.144184
30
0.0
10
46.760326
20
-54.934076
30
0.0
10
53.210299
20
-58.314131
30
0.0
10
59.711204
20
-61.289076
30
0.0
10
66.257363
20
-63.863635
30
0.0
10
72.843097
20
-66.042536
30
0.0
10
79.462729
20
-67.830502
30
0.0
10
86.110579
20
-69.232260
30
0.0
10
92.780971
20
-70.252537
30
0.0
10
99.468225
20
-70.896057
30
0.0
10
106.166663
20
-71.167546
30
0.0
10
112.870608
20
-71.071730
30
0.0
10
119.574380
20
-70.613335
30
0.0
10
126.272303
20
-69.797086
30
0.0
10
132.958696
20
-68.627710
30
0.0
10
139.627883
20
-67.109931
30
0.0
10
146.274186
20
-65.248476
30
0.0
10
152.891924
20
-63.048071
30
0.0
10
159.475422
20
-60.513441
30
0.0
10
166.019000
20
-57.649311
30
0.0
10
172.516980
20
-54.460409
30
0.0
10
178.963684
20
-50.951458
30
0.0
10
185.353433
20
-47.127186
30
0.0
10
191.680550
20
-42.992318
30
0.0
10
197.939357
20
-38.551579
30
0.0
10
204.124174
20
-33.809696
30
0.0
10
210.229324
20
-28.771393
30
0.0
10
216.249129
20
-23.441398
30
0.0
62
0
0
LWPOLYLINE
100
AcDbPolyline
8
Layer_1
90
11
70
0
10
68.593437
20
-34.836899
30
0.0
10
51.656869
20
-26.408293
30
0.0
10
45.478627
20
-44.288953
30
0.0
10
48.261022
20
-25.576739
30
0.0
10
29.346322
20
-25.226309
30
0.0
10
48.002503
20
-22.090132
30
0.0
10
42.490816
20
-3.992894
30
0.0
10
51.238576
20
-20.766842
30
0.0
10
66.746868
20
-9.932566
30
0.0
10
53.497099
20
-23.435615
30
0.0
10
68.593437
20
-34.836899
30
0.0
62
0
0
LWPOLYLINE
100
AcDbPolyline
8
Layer_1
90
5
70
0
10
144.907796
20
-23.178022
30
0.0
10
142.299185
20
-31.845137
30
0.0
10
161.525616
20
-35.745338
30
0.0
10
180.945276
20
-4.254819
30
0.0
10
144.907796
20
-23.178022
30
0.0
62
0
0
LWPOLYLINE
100
AcDbPolyline
8
Layer_1
90
71
70
0
10
126.865609
20
-9.248755
30
0.0
10
122.846327
20
-9.638739
30
0.0
10
118.986112
20
-10.301409
30
0.0
10
115.268568
20
-11.208659
30
0.0
10
111.677302
20
-12.332384
30
0.0
10
108.195917
20
-13.644477
30
0.0
10
104.808019
20
-15.116834
30
0.0
10
98.247104
20
-18.429913
30
0.0
10
91.863395
20
-22.046777
30
0.0
10
85.525734
20
-25.742578
30
0.0
10
79.102960
20
-29.292471
30
0.0
10
75.818669
20
-30.942438
30
0.0
10
72.463914
20
-32.471611
30
0.0
10
73.185709
20
-34.749567
30
0.0
10
74.348470
20
-37.007135
30
0.0
10
75.881240
20
-39.207792
30
0.0
10
77.713059
20
-41.315010
30
0.0
10
79.772969
20
-43.292266
30
0.0
10
81.990013
20
-45.103033
30
0.0
10
84.293231
20
-46.710787
30
0.0
10
86.611666
20
-48.079002
30
0.0
10
88.874360
20
-49.171153
30
0.0
10
91.010354
20
-49.950714
30
0.0
10
92.948689
20
-50.381159
30
0.0
10
94.618409
20
-50.425965
30
0.0
10
95.948553
20
-50.048605
30
0.0
10
96.464111
20
-49.690199
30
0.0
10
96.868165
20
-49.212554
30
0.0
10
97.151847
20
-48.611105
30
0.0
10
97.306286
20
-47.881287
30
0.0
10
97.191957
20
-46.018278
30
0.0
10
96.419385
20
-43.396108
30
0.0
10
95.874781
20
-41.051466
30
0.0
10
95.547497
20
-38.971386
30
0.0
10
95.426881
20
-37.142902
30
0.0
10
95.502284
20
-35.553050
30
0.0
10
95.763055
20
-34.188864
30
0.0
10
96.198546
20
-33.037379
30
0.0
10
96.798105
20
-32.085631
30
0.0
10
97.551084
20
-31.320653
30
0.0
10
98.446831
20
-30.729481
30
0.0
10
99.474698
20
-30.299150
30
0.0
10
100.624034
20
-30.016694
30
0.0
10
103.244512
20
-29.843547
30
0.0
10
106.223068
20
-30.106321
30
0.0
10
107.998674
20
-32.170780
30
0.0
10
109.837244
20
-33.933010
30
0.0
10
111.734454
20
-35.413765
30
0.0
10
113.685981
20
-36.633799
30
0.0
10
115.687502
20
-37.613866
30
0.0
10
117.734692
20
-38.374719
30
0.0
10
119.823227
20
-38.937112
30
0.0
10
121.948785
20
-39.321800
30
0.0
10
126.293671
20
-39.641072
30
0.0
10
130.734761
20
-39.498568
30
0.0
10
135.237465
20
-39.060317
30
0.0
10
139.767194
20
-38.492351
30
0.0
10
139.773116
20
-34.095034
30
0.0
10
139.647510
20
-29.758001
30
0.0
10
139.224909
20
-25.557091
30
0.0
10
138.850526
20
-23.531381
30
0.0
10
138.339844
20
-21.568143
30
0.0
10
137.672180
20
-19.676854
30
0.0
10
136.826849
20
-17.866996
30
0.0
10
135.783169
20
-16.148047
30
0.0
10
134.520457
20
-14.529489
30
0.0
10
133.018028
20
-13.020801
30
0.0
10
131.255199
20
-11.631463
30
0.0
10
129.211287
20
-10.370954
30
0.0
10
126.865609
20
-9.248755
30
0.0
10
126.865609
20
-9.248755
30
0.0
  0
ENDSEC
  0
SECTION
  2
OBJECTS
  0
DICTIONARY
  5
C
330
0
100
AcDbDictionary
  3
ACAD_GROUP
350
D
  3
ACAD_MLINESTYLE
350
17
  0
DICTIONARY
  5
D
330
C
100
AcDbDictionary
  0
DICTIONARY
  5
1A
330
C
100
AcDbDictionary
  0
DICTIONARY
  5
17
330
C
100
AcDbDictionary
  3
STANDARD
350
18
  0
DICTIONARY
  5
19
330
C
100
AcDbDictionary
  0
ENDSEC
  0
EOF
