999
Inkscape export via OpenSCAD DXF Export
  0
SECTION
  2
HEADER
  9
$ACADVER
  1
AC1014
  9
$HANDSEED
  5
FFFF
  9
$MEASUREMENT
 70
     1
  0
ENDSEC
  0
SECTION
  2
TABLES
  0
TABLE
  2
VPORT
  5
8
330
0
100
AcDbSymbolTable
 70
     4
  0
VPORT
  5
2E
330
8
100
AcDbSymbolTableRecord
100
AcDbViewportTableRecord
  2
*ACTIVE
 70
     0
 10
0.0
 20
0.0
 11
1.0
 21
1.0
 12
210.0
 22
148.5
 13
0.0
 23
0.0
 14
10.0
 24
10.0
 15
10.0
 25
10.0
 16
0.0
 26
0.0
 36
1.0
 17
0.0
 27
0.0
 37
0.0
 40
341.0
 41
1.24
 42
50.0
 43
0.0
 44
0.0
 50
0.0
 51
0.0
 71
     0
 72
   100
 73
     1
 74
     3
 75
     0
 76
     0
 77
     0
 78
     0
  0
ENDTAB
  0
TABLE
  2
LTYPE
  5
5
330
0
100
AcDbSymbolTable
 70
     1
  0
LTYPE
  5
14
330
5
100
AcDbSymbolTableRecord
100
AcDbLinetypeTableRecord
  2
BYBLOCK
 70
     0
  3

 72
    65
 73
     0
 40
0.0
  0
LTYPE
  5
15
330
5
100
AcDbSymbolTableRecord
100
AcDbLinetypeTableRecord
  2
BYLAYER
 70
     0
  3

 72
    65
 73
     0
 40
0.0
  0
LTYPE
  5
16
330
5
100
AcDbSymbolTableRecord
100
AcDbLinetypeTableRecord
  2
CONTINUOUS
 70
     0
  3
Solid line
 72
    65
 73
     0
 40
0.0
  0
ENDTAB
  0
TABLE
0
TABLE
2
LAYER
5
2
330
0
100
AcDbSymbolTable
70
1
0
LAYER
5
10
330
2
100
AcDbSymbolTableRecord
100
AcDbLayerTableRecord
2
Layer_1
70
0
62
7
6
CONTINUOUS
0
ENDTAB
0
ENDSEC
  0
ENDTAB
  0
TABLE
  2
STYLE
  5
3
330
0
100
AcDbSymbolTable
 70
     1
  0
STYLE
  5
11
330
3
100
AcDbSymbolTableRecord
100
AcDbTextStyleTableRecord
  2
STANDARD
 70
     0
 40
0.0
 41
1.0
 50
0.0
 71
     0
 42
2.5
  3
txt
  4

  0
ENDTAB
  0
TABLE
  2
VIEW
  5
6
330
0
100
AcDbSymbolTable
 70
     0
  0
ENDTAB
  0
TABLE
  2
UCS
  5
7
330
0
100
AcDbSymbolTable
 70
     0
  0
ENDTAB
  0
TABLE
  2
APPID
  5
9
330
0
100
AcDbSymbolTable
 70
     2
  0
APPID
  5
12
330
9
100
AcDbSymbolTableRecord
100
AcDbRegAppTableRecord
  2
ACAD
 70
     0
  0
ENDTAB
  0
TABLE
  2
DIMSTYLE
  5
A
330
0
100
AcDbSymbolTable
 70
     1
  0
DIMSTYLE
105
27
330
A
100
AcDbSymbolTableRecord
100
AcDbDimStyleTableRecord
  2
ISO-25
 70
     0
  3

  4

  5

  6

  7

 40
1.0
 41
2.5
 42
0.625
 43
3.75
 44
1.25
 45
0.0
 46
0.0
 47
0.0
 48
0.0
140
2.5
141
2.5
142
0.0
143
0.03937007874016
144
1.0
145
0.0
146
1.0
147
0.625
 71
     0
 72
     0
 73
     0
 74
     0
 75
     0
 76
     0
 77
     1
 78
     8
170
     0
171
     3
172
     1
173
     0
174
     0
175
     0
176
     0
177
     0
178
     0
270
     2
271
     2
272
     2
273
     2
274
     3
340
11
275
     0
280
     0
281
     0
282
     0
283
     0
284
     8
285
     0
286
     0
287
     3
288
     0
  0
ENDTAB
  0
TABLE
  2
BLOCK_RECORD
  5
1
330
0
100
AcDbSymbolTable
 70
     1
  0
BLOCK_RECORD
  5
1F
330
1
100
AcDbSymbolTableRecord
100
AcDbBlockTableRecord
  2
*MODEL_SPACE
  0
BLOCK_RECORD
  5
1B
330
1
100
AcDbSymbolTableRecord
100
AcDbBlockTableRecord
  2
*PAPER_SPACE
  0
ENDTAB
  0
ENDSEC
  0
SECTION
  2
BLOCKS
  0
BLOCK
  5
20
330
1F
100
AcDbEntity
  8
0
100
AcDbBlockBegin
  2
*MODEL_SPACE
 70
     0
 10
0.0
 20
0.0
 30
0.0
  3
*MODEL_SPACE
  1

  0
ENDBLK
  5
21
330
1F
100
AcDbEntity
  8
0
100
AcDbBlockEnd
  0
BLOCK
  5
1C
330
1B
100
AcDbEntity
 67
     1
  8
0
100
AcDbBlockBegin
  2
*PAPER_SPACE
  1

  0
ENDBLK
  5
1D
330
1B
100
AcDbEntity
 67
     1
  8
0
100
AcDbBlockEnd
  0
ENDSEC
  0
SECTION
  2
ENTITIES
0
DIMENSION
5
83
100
AcDbEntity
62
256
370
-1
6
ByLayer
1
total_width
3
Standard
70
0
71
5
72
1
41
1.0
100
AcDbAlignedDimension
13
8.857539
23
0.000000
33
0.0
14
202.733557
24
0.000000
34
0.0
50
0.000000
100
AcDbRotatedDimension
0
DIMENSION
5
83
100
AcDbEntity
62
256
370
-1
6
ByLayer
1
total_minx
3
Standard
70
0
71
5
72
1
41
1.0
100
AcDbAlignedDimension
13
8.857539
23
0.000000
33
0.0
14
0.000000
24
0.000000
34
0.0
50
0.000000
100
AcDbRotatedDimension
0
DIMENSION
5
83
100
AcDbEntity
62
256
370
-1
6
ByLayer
1
total_maxx
3
Standard
70
0
71
5
72
1
41
1.0
100
AcDbAlignedDimension
13
0.000000
23
0.000000
33
0.0
14
202.733557
24
0.000000
34
0.0
50
0.000000
100
AcDbRotatedDimension
0
DIMENSION
5
83
100
AcDbEntity
62
256
370
-1
6
ByLayer
1
total_height
3
Standard
70
0
71
5
72
1
41
1.0
100
AcDbAlignedDimension
13
0.000000
23
-67.430983
33
0.0
14
0.000000
24
-3.743336
34
0.0
50
90.000000
100
AcDbRotatedDimension
0
DIMENSION
5
83
100
AcDbEntity
62
256
370
-1
6
ByLayer
1
total_miny
3
Standard
70
0
71
5
72
1
41
1.0
100
AcDbAlignedDimension
13
-67.430983
23
0.000000
33
0.0
14
0.000000
24
0.000000
34
0.0
50
0.000000
100
AcDbRotatedDimension
0
DIMENSION
5
83
100
AcDbEntity
62
256
370
-1
6
ByLayer
1
total_maxy
3
Standard
70
0
71
5
72
1
41
1.0
100
AcDbAlignedDimension
13
0.000000
23
0.000000
33
0.0
14
-3.743336
24
0.000000
34
0.0
50
0.000000
100
AcDbRotatedDimension
0
DIMENSION
8
Layer_1
5
83
100
AcDbEntity
62
256
370
-1
6
ByLayer
1
Layer_1_width
3
Standard
70
0
71
5
72
1
41
1.0
100
AcDbAlignedDimension
13
8.857539
23
0.000000
33
0.0
14
202.733557
24
0.000000
34
0.0
50
0.000000
100
AcDbRotatedDimension
0
DIMENSION
8
Layer_1
5
83
100
AcDbEntity
62
256
370
-1
6
ByLayer
1
Layer_1_minx
3
Standard
70
0
71
5
72
1
41
1.0
100
AcDbAlignedDimension
13
8.857539
23
0.000000
33
0.0
14
0.000000
24
0.000000
34
0.0
50
0.000000
100
AcDbRotatedDimension
0
DIMENSION
8
Layer_1
5
83
100
AcDbEntity
62
256
370
-1
6
ByLayer
1
Layer_1_maxx
3
Standard
70
0
71
5
72
1
41
1.0
100
AcDbAlignedDimension
13
0.000000
23
0.000000
33
0.0
14
202.733557
24
0.000000
34
0.0
50
0.000000
100
AcDbRotatedDimension
0
DIMENSION
8
Layer_1
5
83
100
AcDbEntity
62
256
370
-1
6
ByLayer
1
Layer_1_height
3
Standard
70
0
71
5
72
1
41
1.0
100
AcDbAlignedDimension
13
0.000000
23
-67.430983
33
0.0
14
0.000000
24
-3.743336
34
0.0
50
90.000000
100
AcDbRotatedDimension
0
DIMENSION
8
Layer_1
5
83
100
AcDbEntity
62
256
370
-1
6
ByLayer
1
Layer_1_miny
3
Standard
70
0
71
5
72
1
41
1.0
100
AcDbAlignedDimension
13
-67.430983
23
0.000000
33
0.0
14
0.000000
24
0.000000
34
0.0
50
0.000000
100
AcDbRotatedDimension
0
DIMENSION
8
Layer_1
5
83
100
AcDbEntity
62
256
370
-1
6
ByLayer
1
Layer_1_maxy
3
Standard
70
0
71
5
72
1
41
1.0
100
AcDbAlignedDimension
13
0.000000
23
0.000000
33
0.0
14
-3.743336
24
0.000000
34
0.0
50
0.000000
100
AcDbRotatedDimension
62
0
0
LWPOLYLINE
100
AcDbPolyline
8
Layer_1
90
34
70
0
10
76.467923
20
-15.625465
30
0.0
10
76.356956
20
-16.737031
30
0.0
10
76.038696
20
-17.772346
30
0.0
10
75.535108
20
-18.709233
30
0.0
10
74.868155
20
-19.525512
30
0.0
10
74.059801
20
-20.199004
30
0.0
10
73.132011
20
-20.707529
30
0.0
10
72.106747
20
-21.028909
30
0.0
10
71.005973
20
-21.140964
30
0.0
10
69.905200
20
-21.028909
30
0.0
10
68.879936
20
-20.707529
30
0.0
10
67.952145
20
-20.199004
30
0.0
10
67.143791
20
-19.525512
30
0.0
10
66.476838
20
-18.709233
30
0.0
10
65.973250
20
-17.772346
30
0.0
10
65.654990
20
-16.737031
30
0.0
10
65.544023
20
-15.625465
30
0.0
10
65.654990
20
-14.513900
30
0.0
10
65.973250
20
-13.478584
30
0.0
10
66.476838
20
-12.541697
30
0.0
10
67.143791
20
-11.725419
30
0.0
10
67.952145
20
-11.051927
30
0.0
10
68.879936
20
-10.543402
30
0.0
10
69.905200
20
-10.222022
30
0.0
10
71.005973
20
-10.109967
30
0.0
10
72.106747
20
-10.222022
30
0.0
10
73.132011
20
-10.543402
30
0.0
10
74.059801
20
-11.051927
30
0.0
10
74.868155
20
-11.725419
30
0.0
10
75.535108
20
-12.541697
30
0.0
10
76.038696
20
-13.478584
30
0.0
10
76.356956
20
-14.513900
30
0.0
10
76.467923
20
-15.625465
30
0.0
10
76.467923
20
-15.625465
30
0.0
62
0
0
LWPOLYLINE
100
AcDbPolyline
8
Layer_1
90
9
70
0
10
15.231062
20
-17.801852
30
0.0
10
20.688737
20
-23.227815
30
0.0
10
19.958401
20
-23.962416
30
0.0
10
17.668166
20
-21.685490
30
0.0
10
11.984439
20
-27.402437
30
0.0
10
11.107236
20
-26.530331
30
0.0
10
16.790962
20
-20.813384
30
0.0
10
14.500727
20
-18.536457
30
0.0
10
15.231062
20
-17.801852
30
0.0
62
0
0
LWPOLYLINE
100
AcDbPolyline
8
Layer_1
90
24
70
0
10
20.394010
20
-30.222944
30
0.0
10
20.021953
20
-30.625833
30
0.0
10
16.234790
20
-27.128504
30
0.0
10
15.696790
20
-28.020947
30
0.0
10
15.546268
20
-28.897975
30
0.0
10
15.789936
20
-29.738834
30
0.0
10
16.417300
20
-30.523465
30
0.0
10
17.442477
20
-31.254536
30
0.0
10
18.651283
20
-31.723889
30
0.0
10
17.931974
20
-32.502811
30
0.0
10
16.758661
20
-31.950115
30
0.0
10
15.723161
20
-31.176335
30
0.0
10
14.808892
20
-30.008564
30
0.0
10
14.465524
20
-28.721058
30
0.0
10
14.700347
20
-27.415939
30
0.0
10
15.511712
20
-26.187056
30
0.0
10
16.696362
20
-25.236544
30
0.0
10
17.976648
20
-24.847104
30
0.0
10
19.261197
20
-25.025615
30
0.0
10
20.441447
20
-25.779620
30
0.0
10
21.195934
20
-26.779110
30
0.0
10
21.436019
20
-27.909020
30
0.0
10
21.171250
20
-29.084892
30
0.0
10
20.394010
20
-30.222944
30
0.0
62
0
0
LWPOLYLINE
100
AcDbPolyline
8
Layer_1
90
10
70
0
10
19.793558
20
-29.220561
30
0.0
10
20.255134
20
-28.520887
30
0.0
10
20.409335
20
-27.790323
30
0.0
10
20.260860
20
-27.093365
30
0.0
10
19.805503
20
-26.486231
30
0.0
10
19.094463
20
-26.010011
30
0.0
10
18.340140
20
-25.854604
30
0.0
10
17.582554
20
-26.023813
30
0.0
10
16.852805
20
-26.513161
30
0.0
10
19.793558
20
-29.220561
30
0.0
62
0
0
LWPOLYLINE
100
AcDbPolyline
8
Layer_1
90
13
70
0
10
27.850928
20
-32.441639
30
0.0
10
23.823113
20
-33.387733
30
0.0
10
23.546958
20
-37.739470
30
0.0
10
22.536494
20
-36.886631
30
0.0
10
22.747731
20
-33.556535
30
0.0
10
19.500446
20
-34.324177
30
0.0
10
18.489981
20
-33.471338
30
0.0
10
22.818628
20
-32.452231
30
0.0
10
23.064029
20
-28.401456
30
0.0
10
24.074493
20
-29.254295
30
0.0
10
23.889353
20
-32.279497
30
0.0
10
26.840464
20
-31.588797
30
0.0
10
27.850928
20
-32.441639
30
0.0
62
0
0
LWPOLYLINE
100
AcDbPolyline
8
Layer_1
90
23
70
0
10
31.062761
20
-32.479358
30
0.0
10
29.871588
20
-34.007676
30
0.0
10
31.693073
20
-35.427344
30
0.0
10
31.157421
20
-36.114606
30
0.0
10
29.335936
20
-34.694938
30
0.0
10
27.058471
20
-37.617002
30
0.0
10
26.681519
20
-38.192330
30
0.0
10
26.577028
20
-38.601461
30
0.0
10
26.742606
20
-38.956484
30
0.0
10
27.166263
20
-39.362007
30
0.0
10
28.074603
20
-40.069968
30
0.0
10
27.497745
20
-40.810095
30
0.0
10
26.589406
20
-40.102135
30
0.0
10
25.798299
20
-39.332966
30
0.0
10
25.472354
20
-38.621185
30
0.0
10
25.601792
20
-37.852948
30
0.0
10
26.169356
20
-36.924025
30
0.0
10
28.446820
20
-34.001958
30
0.0
10
27.798005
20
-33.496273
30
0.0
10
28.333658
20
-32.809011
30
0.0
10
28.982472
20
-33.314696
30
0.0
10
30.173645
20
-31.786378
30
0.0
10
31.062761
20
-32.479358
30
0.0
62
0
0
LWPOLYLINE
100
AcDbPolyline
8
Layer_1
90
7
70
0
10
29.836629
20
-40.609249
30
0.0
10
30.873463
20
-41.369513
30
0.0
10
30.253720
20
-42.214704
30
0.0
10
28.294830
20
-43.196236
30
0.0
10
27.660937
20
-42.731428
30
0.0
10
29.216886
20
-41.454440
30
0.0
10
29.836629
20
-40.609249
30
0.0
62
0
0
LWPOLYLINE
100
AcDbPolyline
8
Layer_1
90
22
70
0
10
36.647337
20
-45.981693
30
0.0
10
34.714682
20
-49.041979
30
0.0
10
33.761561
20
-48.440058
30
0.0
10
38.791676
20
-40.475075
30
0.0
10
39.744794
20
-41.076996
30
0.0
10
39.191678
20
-41.952836
30
0.0
10
39.812195
20
-41.717728
30
0.0
10
40.425407
20
-41.665370
30
0.0
10
41.047290
20
-41.793265
30
0.0
10
41.677057
20
-42.102693
30
0.0
10
42.497108
20
-42.912459
30
0.0
10
42.855278
20
-44.014269
30
0.0
10
42.739807
20
-45.292615
30
0.0
10
42.128686
20
-46.625482
30
0.0
10
41.187826
20
-47.750114
30
0.0
10
40.083184
20
-48.403767
30
0.0
10
38.934386
20
-48.553888
30
0.0
10
37.850786
20
-48.161437
30
0.0
10
37.299924
20
-47.727071
30
0.0
10
36.914737
20
-47.224371
30
0.0
10
36.700912
20
-46.644318
30
0.0
10
36.647337
20
-45.981693
30
0.0
62
0
0
LWPOLYLINE
100
AcDbPolyline
8
Layer_1
90
17
70
0
10
41.144656
20
-46.004045
30
0.0
10
41.625365
20
-45.003209
30
0.0
10
41.746543
20
-44.092408
30
0.0
10
41.520843
20
-43.322889
30
0.0
10
40.944157
20
-42.749696
30
0.0
10
40.177462
20
-42.474506
30
0.0
10
39.381777
20
-42.598992
30
0.0
10
38.615315
20
-43.102278
30
0.0
10
37.919508
20
-43.967273
30
0.0
10
37.436689
20
-44.968586
30
0.0
10
37.309216
20
-45.880810
30
0.0
10
37.541211
20
-46.648906
30
0.0
10
38.120007
20
-47.221625
30
0.0
10
38.884591
20
-47.497290
30
0.0
10
39.673979
20
-47.374229
30
0.0
10
40.446738
20
-46.869517
30
0.0
10
41.144656
20
-46.004045
30
0.0
62
0
0
LWPOLYLINE
100
AcDbPolyline
8
Layer_1
90
17
70
0
10
47.156333
20
-46.436602
30
0.0
10
46.364366
20
-46.200242
30
0.0
10
45.566533
20
-46.364562
30
0.0
10
44.819891
20
-46.901960
30
0.0
10
44.175618
20
-47.795479
30
0.0
10
43.758514
20
-48.816479
30
0.0
10
43.693399
20
-49.736304
30
0.0
10
43.981353
20
-50.496360
30
0.0
10
44.606913
20
-51.042818
30
0.0
10
45.394876
20
-51.276966
30
0.0
10
46.191382
20
-51.111906
30
0.0
10
46.939492
20
-50.571845
30
0.0
10
47.582297
20
-49.680989
30
0.0
10
47.993636
20
-48.667251
30
0.0
10
48.053286
20
-47.747877
30
0.0
10
47.772415
20
-46.981300
30
0.0
10
47.156333
20
-46.436602
30
0.0
62
0
0
LWPOLYLINE
100
AcDbPolyline
8
Layer_1
90
17
70
0
10
47.616646
20
-45.604924
30
0.0
10
48.643786
20
-46.445037
30
0.0
10
49.166221
20
-47.549023
30
0.0
10
49.165167
20
-48.843826
30
0.0
10
48.621896
20
-50.256378
30
0.0
10
47.714894
20
-51.464141
30
0.0
10
46.616801
20
-52.155237
30
0.0
10
45.403900
20
-52.298765
30
0.0
10
44.146603
20
-51.874496
30
0.0
10
43.115455
20
-51.032170
30
0.0
10
42.591694
20
-49.927445
30
0.0
10
42.598213
20
-48.632193
30
0.0
10
43.141352
20
-47.223042
30
0.0
10
44.048490
20
-46.011877
30
0.0
10
45.141114
20
-45.321231
30
0.0
10
46.355341
20
-45.178443
30
0.0
10
47.616646
20
-45.604924
30
0.0
62
0
0
LWPOLYLINE
100
AcDbPolyline
8
Layer_1
90
5
70
0
10
52.868886
20
-45.565895
30
0.0
10
53.872215
20
-46.066270
30
0.0
10
49.640789
20
-54.550948
30
0.0
10
48.637458
20
-54.050573
30
0.0
10
52.868886
20
-45.565895
30
0.0
62
0
0
LWPOLYLINE
100
AcDbPolyline
8
Layer_1
90
17
70
0
10
54.074641
20
-57.323375
30
0.0
10
53.236236
20
-58.052155
30
0.0
10
52.581333
20
-58.399079
30
0.0
10
51.986425
20
-58.439183
30
0.0
10
51.328015
20
-58.247534
30
0.0
10
50.509842
20
-57.882962
30
0.0
10
50.891776
20
-57.025825
30
0.0
10
51.492884
20
-57.293677
30
0.0
10
52.238933
20
-57.385958
30
0.0
10
53.178168
20
-56.670417
30
0.0
10
53.570169
20
-56.284732
30
0.0
10
53.781915
20
-49.027721
30
0.0
10
54.867248
20
-49.511339
30
0.0
10
54.642724
20
-55.255025
30
0.0
10
58.763321
20
-51.247404
30
0.0
10
59.848654
20
-51.731020
30
0.0
10
54.074641
20
-57.323375
30
0.0
62
0
0
LWPOLYLINE
100
AcDbPolyline
8
Layer_1
90
17
70
0
10
63.937171
20
-56.829108
30
0.0
10
64.195598
20
-55.771282
30
0.0
10
64.121453
20
-54.882333
30
0.0
10
63.732653
20
-54.201443
30
0.0
10
63.035733
20
-53.763528
30
0.0
10
62.224861
20
-53.640807
30
0.0
10
61.482814
20
-53.901219
30
0.0
10
60.850185
20
-54.527372
30
0.0
10
60.356163
20
-55.497597
30
0.0
10
60.097893
20
-56.550611
30
0.0
10
60.168293
20
-57.436537
30
0.0
10
60.559942
20
-58.118491
30
0.0
10
61.254013
20
-58.555340
30
0.0
10
62.067734
20
-58.679127
30
0.0
10
62.806930
20
-58.417652
30
0.0
10
63.443306
20
-57.794522
30
0.0
10
63.937171
20
-56.829108
30
0.0
62
0
0
LWPOLYLINE
100
AcDbPolyline
8
Layer_1
90
34
70
0
10
64.066406
20
-59.698574
30
0.0
10
63.355752
20
-61.054699
30
0.0
10
62.438526
20
-61.856194
30
0.0
10
61.297445
20
-62.114509
30
0.0
10
59.919509
20
-61.829693
30
0.0
10
58.906187
20
-61.355402
30
0.0
10
58.045833
20
-60.749457
30
0.0
10
58.425961
20
-59.727126
30
0.0
10
59.201741
20
-60.438143
30
0.0
10
60.076670
20
-60.899985
30
0.0
10
61.030922
20
-61.100402
30
0.0
10
61.826185
20
-60.932909
30
0.0
10
62.462815
20
-60.400888
30
0.0
10
62.945439
20
-59.496305
30
0.0
10
63.138688
20
-58.976573
30
0.0
10
62.583755
20
-59.332567
30
0.0
10
61.990537
20
-59.511802
30
0.0
10
61.354208
20
-59.514109
30
0.0
10
60.669966
20
-59.339328
30
0.0
10
59.691007
20
-58.720162
30
0.0
10
59.107208
20
-57.737604
30
0.0
10
58.955048
20
-56.494603
30
0.0
10
59.271007
20
-55.094110
30
0.0
10
59.948373
20
-53.823128
30
0.0
10
60.876188
20
-52.980059
30
0.0
10
61.960096
20
-52.617603
30
0.0
10
63.105761
20
-52.788422
30
0.0
10
63.737973
20
-53.103139
30
0.0
10
64.218219
20
-53.520611
30
0.0
10
64.550229
20
-54.043874
30
0.0
10
64.737776
20
-54.675936
30
0.0
10
65.098792
20
-53.705009
30
0.0
10
66.149680
20
-54.095757
30
0.0
10
64.066406
20
-59.698577
30
0.0
62
0
0
LWPOLYLINE
100
AcDbPolyline
8
Layer_1
90
17
70
0
10
70.223959
20
-56.190377
30
0.0
10
69.399754
20
-56.129009
30
0.0
10
68.655582
20
-56.460291
30
0.0
10
68.041271
20
-57.145049
30
0.0
10
67.603181
20
-58.155764
30
0.0
10
67.414283
20
-59.242378
30
0.0
10
67.547558
20
-60.154823
30
0.0
10
67.991525
20
-60.835630
30
0.0
10
68.719553
20
-61.235525
30
0.0
10
69.539372
20
-61.295589
30
0.0
10
70.282088
20
-60.963869
30
0.0
10
70.897264
20
-60.276194
30
0.0
10
71.334489
20
-59.268397
30
0.0
10
71.519310
20
-58.190108
30
0.0
10
71.380790
20
-57.279275
30
0.0
10
70.942349
20
-56.590583
30
0.0
10
70.223959
20
-56.190377
30
0.0
62
0
0
LWPOLYLINE
100
AcDbPolyline
8
Layer_1
90
17
70
0
10
70.495586
20
-55.279445
30
0.0
10
71.678742
20
-55.880236
30
0.0
10
72.425371
20
-56.846811
30
0.0
10
72.701487
20
-58.111832
30
0.0
10
72.473151
20
-59.607933
30
0.0
10
71.845685
20
-60.981842
30
0.0
10
70.920968
20
-61.891960
30
0.0
10
69.766898
20
-62.291775
30
0.0
10
68.447926
20
-62.146454
30
0.0
10
67.260383
20
-61.544362
30
0.0
10
66.512302
20
-60.577349
30
0.0
10
66.241428
20
-59.310719
30
0.0
10
66.470358
20
-57.817969
30
0.0
10
67.097230
20
-56.440707
30
0.0
10
68.016704
20
-55.532201
30
0.0
10
69.172227
20
-55.132824
30
0.0
10
70.495586
20
-55.279445
30
0.0
62
0
0
LWPOLYLINE
100
AcDbPolyline
8
Layer_1
90
25
70
0
10
79.737317
20
-60.562800
30
0.0
10
78.829930
20
-64.580733
30
0.0
10
77.736294
20
-64.333755
30
0.0
10
78.635623
20
-60.351484
30
0.0
10
78.730069
20
-59.504508
30
0.0
10
78.586578
20
-58.853663
30
0.0
10
78.205469
20
-58.397477
30
0.0
10
77.587094
20
-58.134448
30
0.0
10
76.763215
20
-58.096755
30
0.0
10
76.062809
20
-58.383661
30
0.0
10
75.528768
20
-58.964265
30
0.0
10
75.204001
20
-59.807639
30
0.0
10
74.354334
20
-63.569994
30
0.0
10
73.254751
20
-63.321669
30
0.0
10
74.758113
20
-56.664741
30
0.0
10
75.857693
20
-56.913063
30
0.0
10
75.624137
20
-57.947266
30
0.0
10
76.169049
20
-57.519048
30
0.0
10
76.748092
20
-57.257823
30
0.0
10
77.373476
20
-57.164806
30
0.0
10
78.045550
20
-57.238491
30
0.0
10
79.012732
20
-57.644324
30
0.0
10
79.620034
20
-58.343681
30
0.0
10
79.863694
20
-59.318556
30
0.0
10
79.737317
20
-60.562800
30
0.0
62
0
0
LWPOLYLINE
100
AcDbPolyline
8
Layer_1
90
43
70
0
10
86.385535
20
-59.127794
30
0.0
10
86.218166
20
-60.174748
30
0.0
10
85.301130
20
-59.657903
30
0.0
10
84.273415
20
-59.370197
30
0.0
10
83.541277
20
-59.317952
30
0.0
10
82.993521
20
-59.424759
30
0.0
10
82.636153
20
-59.691598
30
0.0
10
82.463169
20
-60.117490
30
0.0
10
82.481801
20
-60.473749
30
0.0
10
82.660851
20
-60.772336
30
0.0
10
83.779823
20
-61.376997
30
0.0
10
84.145425
20
-61.521834
30
0.0
10
85.104448
20
-61.988314
30
0.0
10
85.703678
20
-62.505257
30
0.0
10
85.990459
20
-63.114184
30
0.0
10
85.998205
20
-63.866708
30
0.0
10
85.677253
20
-64.677762
30
0.0
10
85.014517
20
-65.233626
30
0.0
10
84.068883
20
-65.503610
30
0.0
10
82.887233
20
-65.455092
30
0.0
10
81.773355
20
-65.165952
30
0.0
10
80.589896
20
-64.655883
30
0.0
10
80.772655
20
-63.512660
30
0.0
10
81.905114
20
-64.187355
30
0.0
10
83.059431
20
-64.532327
30
0.0
10
83.761960
20
-64.576757
30
0.0
10
84.305148
20
-64.459956
30
0.0
10
84.672976
20
-64.185540
30
0.0
10
84.847532
20
-63.769150
30
0.0
10
84.834536
20
-63.358263
30
0.0
10
84.651283
20
-63.028144
30
0.0
10
83.395600
20
-62.352259
30
0.0
10
83.024940
20
-62.200446
30
0.0
10
82.182706
20
-61.785038
30
0.0
10
81.644558
20
-61.300992
30
0.0
10
81.386955
20
-60.712162
30
0.0
10
81.384453
20
-59.994411
30
0.0
10
81.687592
20
-59.178973
30
0.0
10
82.293054
20
-58.634001
30
0.0
10
83.170393
20
-58.376246
30
0.0
10
84.289172
20
-58.422421
30
0.0
10
85.430002
20
-58.697357
30
0.0
10
86.385535
20
-59.127794
30
0.0
62
0
0
LWPOLYLINE
100
AcDbPolyline
8
Layer_1
90
7
70
0
10
87.940080
20
-64.419830
30
0.0
10
89.217703
20
-64.563727
30
0.0
10
89.100403
20
-65.605200
30
0.0
10
87.889139
20
-67.430983
30
0.0
10
87.108033
20
-67.343009
30
0.0
10
87.822780
20
-65.461303
30
0.0
10
87.940080
20
-64.419830
30
0.0
62
0
0
LWPOLYLINE
100
AcDbPolyline
8
Layer_1
90
15
70
0
10
98.587151
20
-63.272992
30
0.0
10
97.435396
20
-63.320767
30
0.0
10
96.696860
20
-63.534711
30
0.0
10
96.293043
20
-63.944799
30
0.0
10
96.145452
20
-64.580979
30
0.0
10
96.228970
20
-65.119550
30
0.0
10
96.510588
20
-65.541358
30
0.0
10
96.969801
20
-65.813879
30
0.0
10
97.573632
20
-65.916437
30
0.0
10
98.416983
20
-65.773784
30
0.0
10
99.083108
20
-65.297377
30
0.0
10
99.528047
20
-64.536352
30
0.0
10
99.695370
20
-63.551717
30
0.0
10
99.701861
20
-63.301973
30
0.0
10
98.587151
20
-63.272992
30
0.0
62
0
0
LWPOLYLINE
100
AcDbPolyline
8
Layer_1
90
31
70
0
10
100.834698
20
-62.868175
30
0.0
10
100.733499
20
-66.760522
30
0.0
10
99.612698
20
-66.731382
30
0.0
10
99.639622
20
-65.695858
30
0.0
10
99.194602
20
-66.225257
30
0.0
10
98.659371
20
-66.590782
30
0.0
10
98.017126
20
-66.793519
30
0.0
10
97.250769
20
-66.846741
30
0.0
10
96.313460
20
-66.676075
30
0.0
10
95.596953
20
-66.218579
30
0.0
10
95.153472
20
-65.516743
30
0.0
10
95.022749
20
-64.624935
30
0.0
10
95.240874
20
-63.620291
30
0.0
10
95.835391
20
-62.908866
30
0.0
10
96.809219
20
-62.495317
30
0.0
10
98.153110
20
-62.383964
30
0.0
10
99.724667
20
-62.424824
30
0.0
10
99.727518
20
-62.315180
30
0.0
10
99.617414
20
-61.626587
30
0.0
10
99.246888
20
-61.107980
30
0.0
10
98.646069
20
-60.772355
30
0.0
10
97.832607
20
-60.644529
30
0.0
10
96.689889
20
-60.755016
30
0.0
10
95.612983
20
-61.147602
30
0.0
10
95.639907
20
-60.112077
30
0.0
10
96.842989
20
-59.789822
30
0.0
10
97.973049
20
-59.697295
30
0.0
10
99.260937
20
-59.922787
30
0.0
10
100.164240
20
-60.522290
30
0.0
10
100.687350
20
-61.502019
30
0.0
10
100.834698
20
-62.868175
30
0.0
62
0
0
LWPOLYLINE
100
AcDbPolyline
8
Layer_1
90
25
70
0
10
108.547727
20
-62.393655
30
0.0
10
108.718615
20
-66.509225
30
0.0
10
107.598399
20
-66.555739
30
0.0
10
107.429029
20
-62.476696
30
0.0
10
107.299517
20
-61.634369
30
0.0
10
106.991401
20
-61.043397
30
0.0
10
106.504590
20
-60.702270
30
0.0
10
105.839040
20
-60.609455
30
0.0
10
105.033798
20
-60.787736
30
0.0
10
104.432346
20
-61.247232
30
0.0
10
104.068037
20
-61.946933
30
0.0
10
103.974240
20
-62.845795
30
0.0
10
104.134260
20
-66.699579
30
0.0
10
103.007956
20
-66.746343
30
0.0
10
102.724828
20
-59.927645
30
0.0
10
103.851131
20
-59.880881
30
0.0
10
103.895116
20
-60.940213
30
0.0
10
104.309629
20
-60.384804
30
0.0
10
104.800603
20
-59.981725
30
0.0
10
105.380148
20
-59.728967
30
0.0
10
106.048206
20
-59.624990
30
0.0
10
107.087723
20
-59.764790
30
0.0
10
107.856274
20
-60.281749
30
0.0
10
108.345535
20
-61.159460
30
0.0
10
108.547727
20
-62.393655
30
0.0
62
0
0
LWPOLYLINE
100
AcDbPolyline
8
Layer_1
90
22
70
0
10
114.799291
20
-60.094108
30
0.0
10
114.399246
20
-56.423261
30
0.0
10
115.513826
20
-56.301795
30
0.0
10
116.541005
20
-65.727272
30
0.0
10
115.426425
20
-65.848738
30
0.0
10
115.315520
20
-64.831079
30
0.0
10
114.974834
20
-65.403000
30
0.0
10
114.523430
20
-65.830687
30
0.0
10
113.959612
20
-66.112790
30
0.0
10
113.270925
20
-66.261395
30
0.0
10
112.128092
20
-66.137699
30
0.0
10
111.158949
20
-65.498588
30
0.0
10
110.458194
20
-64.425685
30
0.0
10
110.108424
20
-63.001929
30
0.0
10
110.143307
20
-61.536257
30
0.0
10
110.596508
20
-60.337593
30
0.0
10
111.405239
20
-59.504735
30
0.0
10
112.494599
20
-59.137770
30
0.0
10
113.199296
20
-59.136070
30
0.0
10
113.811137
20
-59.294638
30
0.0
10
114.343574
20
-59.610515
30
0.0
10
114.799291
20
-60.094108
30
0.0
62
0
0
LWPOLYLINE
100
AcDbPolyline
8
Layer_1
90
17
70
0
10
111.259352
20
-62.876501
30
0.0
10
111.504693
20
-63.960727
30
0.0
10
111.972708
20
-64.754054
30
0.0
10
112.632365
20
-65.210830
30
0.0
10
113.441850
20
-65.298834
30
0.0
10
114.213373
20
-65.038534
30
0.0
10
114.759161
20
-64.450389
30
0.0
10
115.049845
20
-63.574381
30
0.0
10
115.057405
20
-62.462593
30
0.0
10
114.810710
20
-61.380052
30
0.0
10
114.338650
20
-60.591759
30
0.0
10
113.678494
20
-60.130445
30
0.0
10
112.868848
20
-60.040921
30
0.0
10
112.097487
20
-60.302741
30
0.0
10
111.552200
20
-60.895422
30
0.0
10
111.265557
20
-61.766398
30
0.0
10
111.259352
20
-62.876501
30
0.0
62
0
0
LWPOLYLINE
100
AcDbPolyline
8
Layer_1
90
27
70
0
10
126.246221
20
-57.315775
30
0.0
10
126.455534
20
-58.342719
30
0.0
10
125.440265
20
-58.151660
30
0.0
10
124.470135
20
-58.212584
30
0.0
10
123.555489
20
-58.576245
30
0.0
10
122.949036
20
-59.231544
30
0.0
10
122.671222
20
-60.133909
30
0.0
10
122.744933
20
-61.250675
30
0.0
10
123.114492
20
-62.308701
30
0.0
10
123.724227
20
-63.034822
30
0.0
10
124.537864
20
-63.396017
30
0.0
10
125.521570
20
-63.371191
30
0.0
10
126.439371
20
-63.053533
30
0.0
10
127.297657
20
-62.474382
30
0.0
10
127.504537
20
-63.489386
30
0.0
10
126.614956
20
-64.006510
30
0.0
10
125.592002
20
-64.326945
30
0.0
10
124.188298
20
-64.365861
30
0.0
10
122.998323
20
-63.866830
30
0.0
10
122.103843
20
-62.887812
30
0.0
10
121.586633
20
-61.486762
30
0.0
10
121.512685
20
-59.979822
30
0.0
10
121.957725
20
-58.730888
30
0.0
10
122.881675
20
-57.810324
30
0.0
10
124.232526
20
-57.290905
30
0.0
10
125.245554
20
-57.196363
30
0.0
10
126.246221
20
-57.315775
30
0.0
62
0
0
LWPOLYLINE
100
AcDbPolyline
8
Layer_1
90
25
70
0
10
128.668718
20
-60.726416
30
0.0
10
127.612927
20
-56.732297
30
0.0
10
128.696878
20
-56.445771
30
0.0
10
129.741769
20
-60.398652
30
0.0
10
130.049920
20
-61.194843
30
0.0
10
130.479185
20
-61.710062
30
0.0
10
131.028004
20
-61.938421
30
0.0
10
131.697939
20
-61.885810
30
0.0
10
132.445931
20
-61.538402
30
0.0
10
132.934394
20
-60.960217
30
0.0
10
133.143983
20
-60.197343
30
0.0
10
133.043594
20
-59.298961
30
0.0
10
132.054764
20
-55.558159
30
0.0
10
133.138714
20
-55.271630
30
0.0
10
134.882794
20
-61.869585
30
0.0
10
133.798843
20
-62.156111
30
0.0
10
133.531003
20
-61.142855
30
0.0
10
133.242493
20
-61.780056
30
0.0
10
132.848700
20
-62.281218
30
0.0
10
132.344804
20
-62.646038
30
0.0
10
131.717342
20
-62.889107
30
0.0
10
130.670622
20
-62.976713
30
0.0
10
129.804406
20
-62.638446
30
0.0
10
129.132499
20
-61.884838
30
0.0
10
128.668718
20
-60.726416
30
0.0
62
0
0
LWPOLYLINE
100
AcDbPolyline
8
Layer_1
90
2
70
0
10
130.298430
20
-55.852249
30
0.0
10
130.298430
20
-55.852249
30
0.0
62
0
0
LWPOLYLINE
100
AcDbPolyline
8
Layer_1
90
19
70
0
10
139.125463
20
-54.484964
30
0.0
10
138.682606
20
-54.459254
30
0.0
10
138.201372
20
-54.554377
30
0.0
10
137.446832
20
-54.956749
30
0.0
10
136.995352
20
-55.588998
30
0.0
10
136.860877
20
-56.419548
30
0.0
10
137.049431
20
-57.432090
30
0.0
10
138.136486
20
-60.858894
30
0.0
10
137.061979
20
-61.199748
30
0.0
10
134.998420
20
-54.694633
30
0.0
10
136.072925
20
-54.353776
30
0.0
10
136.393515
20
-55.364394
30
0.0
10
136.617690
20
-54.725942
30
0.0
10
136.992332
20
-54.209151
30
0.0
10
137.521477
20
-53.801579
30
0.0
10
138.212850
20
-53.502348
30
0.0
10
138.462317
20
-53.442390
30
0.0
10
138.771430
20
-53.389081
30
0.0
10
139.125463
20
-54.484976
30
0.0
62
0
0
LWPOLYLINE
100
AcDbPolyline
8
Layer_1
90
8
70
0
10
138.888287
20
-53.475249
30
0.0
10
140.003634
20
-53.065573
30
0.0
10
143.980394
20
-57.706805
30
0.0
10
144.007459
20
-51.594938
30
0.0
10
145.122807
20
-51.185262
30
0.0
10
145.073537
20
-58.473741
30
0.0
10
143.643604
20
-58.998968
30
0.0
10
138.888301
20
-53.475249
30
0.0
62
0
0
LWPOLYLINE
100
AcDbPolyline
8
Layer_1
90
24
70
0
10
152.826435
20
-51.313481
30
0.0
10
153.041818
20
-51.817818
30
0.0
10
148.301041
20
-53.842412
30
0.0
10
148.895221
20
-54.698479
30
0.0
10
149.633881
20
-55.194683
30
0.0
10
150.500830
20
-55.316408
30
0.0
10
151.473473
20
-55.065018
30
0.0
10
152.560020
20
-54.428726
30
0.0
10
153.482901
20
-53.517794
30
0.0
10
153.899306
20
-54.492847
30
0.0
10
152.914903
20
-55.337292
30
0.0
10
151.785162
20
-55.965527
30
0.0
10
150.345526
20
-56.321934
30
0.0
10
149.030238
20
-56.108425
30
0.0
10
147.935458
20
-55.360135
30
0.0
10
147.146148
20
-54.116972
30
0.0
10
146.763580
20
-52.647104
30
0.0
10
146.932097
20
-51.319551
30
0.0
10
147.620586
20
-50.220499
30
0.0
10
148.791512
20
-49.452095
30
0.0
10
150.012220
20
-49.172626
30
0.0
10
151.141450
20
-49.415892
30
0.0
10
152.106043
20
-50.138620
30
0.0
10
152.826435
20
-51.313481
30
0.0
62
0
0
LWPOLYLINE
100
AcDbPolyline
8
Layer_1
90
10
70
0
10
151.666115
20
-51.451216
30
0.0
10
151.216561
20
-50.743759
30
0.0
10
150.613051
20
-50.304127
30
0.0
10
149.916353
20
-50.154423
30
0.0
10
149.176049
20
-50.321484
30
0.0
10
148.450579
20
-50.775417
30
0.0
10
148.000125
20
-51.400115
30
0.0
10
147.844535
20
-52.160614
30
0.0
10
147.992448
20
-53.026705
30
0.0
10
151.666118
20
-51.451205
30
0.0
62
0
0
LWPOLYLINE
100
AcDbPolyline
8
Layer_1
90
43
70
0
10
156.978378
20
-46.065954
30
0.0
10
157.439479
20
-47.020683
30
0.0
10
156.391593
20
-47.120768
30
0.0
10
155.383865
20
-47.472132
30
0.0
10
154.753256
20
-47.847749
30
0.0
10
154.364854
20
-48.248485
30
0.0
10
154.224146
20
-48.671704
30
0.0
10
154.325642
20
-49.120041
30
0.0
10
154.544571
20
-49.401710
30
0.0
10
154.862155
20
-49.544371
30
0.0
10
156.125934
20
-49.400920
30
0.0
10
156.508710
20
-49.310787
30
0.0
10
157.562260
20
-49.145375
30
0.0
10
158.349434
20
-49.227029
30
0.0
10
158.932806
20
-49.562754
30
0.0
10
159.369303
20
-50.175798
30
0.0
10
159.569543
20
-51.024753
30
0.0
10
159.343479
20
-51.859677
30
0.0
10
158.721873
20
-52.621725
30
0.0
10
157.724554
20
-53.257343
30
0.0
10
156.645308
20
-53.656778
30
0.0
10
155.382682
20
-53.914709
30
0.0
10
154.879181
20
-52.872188
30
0.0
10
156.194060
20
-52.778493
30
0.0
10
157.338401
20
-52.401752
30
0.0
10
157.940248
20
-52.036646
30
0.0
10
158.319191
20
-51.630323
30
0.0
10
158.464152
20
-51.194905
30
0.0
10
158.369375
20
-50.753467
30
0.0
10
158.123851
20
-50.423748
30
0.0
10
157.784789
20
-50.257620
30
0.0
10
156.368123
20
-50.420775
30
0.0
10
155.977209
20
-50.508072
30
0.0
10
155.048680
20
-50.648634
30
0.0
10
154.330431
20
-50.559061
30
0.0
10
153.782488
20
-50.223149
30
0.0
10
153.370173
20
-49.635639
30
0.0
10
153.152806
20
-48.793269
30
0.0
10
153.338107
20
-48.000023
30
0.0
10
153.910663
20
-47.287042
30
0.0
10
154.855057
20
-46.685440
30
0.0
10
155.948298
20
-46.258943
30
0.0
10
156.978384
20
-46.065954
30
0.0
62
0
0
LWPOLYLINE
100
AcDbPolyline
8
Layer_1
90
7
70
0
10
161.309925
20
-49.534341
30
0.0
10
162.448692
20
-48.937486
30
0.0
10
162.935229
20
-49.865771
30
0.0
10
162.955295
20
-52.056716
30
0.0
10
162.259083
20
-52.421618
30
0.0
10
161.796453
20
-50.462626
30
0.0
10
161.309916
20
-49.534341
30
0.0
62
0
0
LWPOLYLINE
100
AcDbPolyline
8
Layer_1
90
17
70
0
10
167.907527
20
-40.692939
30
0.0
10
167.306328
20
-41.260071
30
0.0
10
167.049004
20
-42.032939
30
0.0
10
167.140244
20
-42.948333
30
0.0
10
167.590995
20
-43.953464
30
0.0
10
168.265851
20
-44.825808
30
0.0
10
169.029408
20
-45.342813
30
0.0
10
169.831494
20
-45.474203
30
0.0
10
170.617766
20
-45.206404
30
0.0
10
171.215048
20
-44.641632
30
0.0
10
171.471065
20
-43.869542
30
0.0
10
171.378256
20
-42.951543
30
0.0
10
170.929077
20
-41.949017
30
0.0
10
170.257617
20
-41.085301
30
0.0
10
169.491711
20
-40.573252
30
0.0
10
168.687530
20
-40.432465
30
0.0
10
167.907527
20
-40.692939
30
0.0
62
0
0
LWPOLYLINE
100
AcDbPolyline
8
Layer_1
90
17
70
0
10
167.418179
20
-39.878008
30
0.0
10
168.659739
20
-39.409677
30
0.0
10
169.876944
20
-39.510346
30
0.0
10
170.997152
20
-40.159689
30
0.0
10
171.947741
20
-41.337329
30
0.0
10
172.538915
20
-42.727242
30
0.0
10
172.587183
20
-44.023811
30
0.0
10
172.103999
20
-45.145534
30
0.0
10
171.107117
20
-46.021334
30
0.0
10
169.861636
20
-46.492026
30
0.0
10
168.643128
20
-46.392135
30
0.0
10
167.525265
20
-45.737835
30
0.0
10
166.577555
20
-44.562014
30
0.0
10
165.983503
20
-43.170282
30
0.0
10
165.932886
20
-41.878671
30
0.0
10
166.417374
20
-40.756171
30
0.0
10
167.418179
20
-39.878008
30
0.0
62
0
0
LWPOLYLINE
100
AcDbPolyline
8
Layer_1
90
25
70
0
10
177.723436
20
-36.695761
30
0.0
10
179.995511
20
-40.131574
30
0.0
10
179.060320
20
-40.750007
30
0.0
10
176.808412
20
-37.344691
30
0.0
10
176.262443
20
-36.690317
30
0.0
10
175.693361
20
-36.343426
30
0.0
10
175.100319
20
-36.302773
30
0.0
10
174.482481
20
-36.567062
30
0.0
10
173.885055
20
-37.135639
30
0.0
10
173.607380
20
-37.839754
30
0.0
10
173.656833
20
-38.627064
30
0.0
10
174.040794
20
-39.445190
30
0.0
10
176.168344
20
-42.662450
30
0.0
10
175.228069
20
-43.284247
30
0.0
10
169.998263
20
-35.375779
30
0.0
10
170.938537
20
-34.753985
30
0.0
10
172.988783
20
-37.854348
30
0.0
10
173.056895
20
-37.164660
30
0.0
10
173.269058
20
-36.565916
30
0.0
10
173.634757
20
-36.050144
30
0.0
10
174.153096
20
-35.616049
30
0.0
10
175.115422
20
-35.198832
30
0.0
10
176.040531
20
-35.244526
30
0.0
10
176.912825
20
-35.743382
30
0.0
10
177.723436
20
-36.695761
30
0.0
62
0
0
LWPOLYLINE
100
AcDbPolyline
8
Layer_1
90
44
70
0
10
185.933890
20
-28.952088
30
0.0
10
185.898336
20
-28.150312
30
0.0
10
186.048876
20
-27.455080
30
0.0
10
186.388365
20
-26.852670
30
0.0
10
186.919670
20
-26.329301
30
0.0
10
187.781936
20
-25.900794
30
0.0
10
188.680110
20
-25.917858
30
0.0
10
189.574688
20
-26.366742
30
0.0
10
190.433633
20
-27.243278
30
0.0
10
192.949556
20
-30.504759
30
0.0
10
192.056989
20
-31.193288
30
0.0
10
189.563400
20
-27.960755
30
0.0
10
188.972664
20
-27.337136
30
0.0
10
188.398887
20
-27.019798
30
0.0
10
187.833783
20
-27.005530
30
0.0
10
187.269095
20
-27.291061
30
0.0
10
186.739926
20
-27.882042
30
0.0
10
186.532286
20
-28.590528
30
0.0
10
186.649718
20
-29.363784
30
0.0
10
187.095779
20
-30.149027
30
0.0
10
189.451663
20
-33.203049
30
0.0
10
188.559099
20
-33.891578
30
0.0
10
186.065507
20
-30.659042
30
0.0
10
185.472914
20
-30.033009
30
0.0
10
184.900996
20
-29.718085
30
0.0
10
184.333482
20
-29.705678
30
0.0
10
183.761552
20
-29.996793
30
0.0
10
183.240554
20
-30.583396
30
0.0
10
183.038115
20
-31.293641
30
0.0
10
183.154619
20
-32.065688
30
0.0
10
183.597886
20
-32.847314
30
0.0
10
185.953770
20
-35.901336
30
0.0
10
185.061205
20
-36.589866
30
0.0
10
180.892814
20
-31.186224
30
0.0
10
181.785381
20
-30.497695
30
0.0
10
182.432971
20
-31.337191
30
0.0
10
182.434005
20
-30.647654
30
0.0
10
182.595785
20
-30.041850
30
0.0
10
182.923387
20
-29.506329
30
0.0
10
183.421776
20
-29.027591
30
0.0
10
184.023447
20
-28.682750
30
0.0
10
184.651235
20
-28.556314
30
0.0
10
185.294734
20
-28.644797
30
0.0
10
185.933890
20
-28.952088
30
0.0
62
0
0
LWPOLYLINE
100
AcDbPolyline
8
Layer_1
90
17
70
0
10
197.228133
20
-27.688817
30
0.0
10
197.522481
20
-28.759986
30
0.0
10
197.551937
20
-29.500517
30
0.0
10
197.330729
20
-30.054224
30
0.0
10
196.873106
20
-30.564921
30
0.0
10
196.190458
20
-31.144851
30
0.0
10
195.582915
20
-30.429697
30
0.0
10
196.084450
20
-30.003626
30
0.0
10
196.490401
20
-29.370926
30
0.0
10
196.251616
20
-28.214577
30
0.0
10
196.073474
20
-27.694306
30
0.0
10
189.622314
20
-24.363906
30
0.0
10
190.527867
20
-23.594613
30
0.0
10
195.609117
20
-26.281846
30
0.0
10
193.778564
20
-20.833046
30
0.0
10
194.684114
20
-20.063754
30
0.0
10
197.228133
20
-27.688817
30
0.0
62
0
0
LWPOLYLINE
100
AcDbPolyline
8
Layer_1
90
5
70
0
10
199.739216
20
-22.600649
30
0.0
10
200.658798
20
-21.773351
30
0.0
10
201.693941
20
-22.923963
30
0.0
10
200.774359
20
-23.751261
30
0.0
10
199.739216
20
-22.600649
30
0.0
62
0
0
LWPOLYLINE
100
AcDbPolyline
8
Layer_1
90
7
70
0
10
194.689840
20
-16.988028
30
0.0
10
195.609424
20
-16.160727
30
0.0
10
198.278787
20
-19.127854
30
0.0
10
199.643091
20
-20.826558
30
0.0
10
198.909237
20
-21.486766
30
0.0
10
197.359205
20
-19.955152
30
0.0
10
194.689840
20
-16.988028
30
0.0
62
0
0
LWPOLYLINE
100
AcDbPolyline
8
Layer_1
90
33
70
0
10
8.857539
20
-24.264163
30
0.0
10
14.506106
20
-29.804751
30
0.0
10
20.234362
20
-34.938966
30
0.0
10
26.036983
20
-39.671238
30
0.0
10
31.908646
20
-44.005996
30
0.0
10
37.844028
20
-47.947672
30
0.0
10
43.837805
20
-51.500696
30
0.0
10
49.884655
20
-54.669498
30
0.0
10
55.979253
20
-57.458508
30
0.0
10
62.116277
20
-59.872158
30
0.0
10
68.290403
20
-61.914877
30
0.0
10
74.496307
20
-63.591095
30
0.0
10
80.728667
20
-64.905243
30
0.0
10
86.982159
20
-65.861752
30
0.0
10
93.251460
20
-66.465052
30
0.0
10
99.531246
20
-66.719573
30
0.0
10
105.816194
20
-66.629746
30
0.0
10
112.100981
20
-66.200000
30
0.0
10
118.380283
20
-65.434767
30
0.0
10
124.648777
20
-64.338476
30
0.0
10
130.901140
20
-62.915559
30
0.0
10
137.132048
20
-61.170445
30
0.0
10
143.336178
20
-59.107565
30
0.0
10
149.508207
20
-56.731349
30
0.0
10
155.642812
20
-54.046228
30
0.0
10
161.734668
20
-51.056632
30
0.0
10
167.778453
20
-47.766991
30
0.0
10
173.768843
20
-44.181736
30
0.0
10
179.700515
20
-40.305296
30
0.0
10
185.568146
20
-36.142104
30
0.0
10
191.366412
20
-31.696588
30
0.0
10
197.089990
20
-26.973179
30
0.0
10
202.733557
20
-21.976309
30
0.0
62
0
0
LWPOLYLINE
100
AcDbPolyline
8
Layer_1
90
11
70
0
10
64.306347
20
-32.659591
30
0.0
10
48.428316
20
-24.757772
30
0.0
10
42.636216
20
-41.520892
30
0.0
10
45.244711
20
-23.978190
30
0.0
10
27.512178
20
-23.649663
30
0.0
10
45.002347
20
-20.709495
30
0.0
10
39.835143
20
-3.743336
30
0.0
10
48.036166
20
-19.468914
30
0.0
10
62.575191
20
-9.311778
30
0.0
10
50.153532
20
-21.970887
30
0.0
10
64.306347
20
-32.659591
30
0.0
62
0
0
LWPOLYLINE
100
AcDbPolyline
8
Layer_1
90
5
70
0
10
135.851059
20
-21.729395
30
0.0
10
133.405485
20
-29.854816
30
0.0
10
151.430265
20
-33.511253
30
0.0
10
169.636197
20
-3.988892
30
0.0
10
135.851059
20
-21.729395
30
0.0
62
0
0
LWPOLYLINE
100
AcDbPolyline
8
Layer_1
90
68
70
0
10
118.936508
20
-8.670708
30
0.0
10
115.168431
20
-9.036318
30
0.0
10
111.549480
20
-9.657571
30
0.0
10
108.064283
20
-10.508118
30
0.0
10
104.697471
20
-11.561609
30
0.0
10
101.433673
20
-12.791697
30
0.0
10
98.257519
20
-14.172031
30
0.0
10
92.106660
20
-17.278043
30
0.0
10
86.121934
20
-20.668852
30
0.0
10
80.180376
20
-24.133666
30
0.0
10
74.159026
20
-27.461691
30
0.0
10
67.934919
20
-30.442134
30
0.0
10
68.611602
20
-32.577717
30
0.0
10
69.701691
20
-34.694188
30
0.0
10
71.138662
20
-36.757303
30
0.0
10
72.855993
20
-38.732821
30
0.0
10
74.787159
20
-40.586498
30
0.0
10
76.865637
20
-42.284093
30
0.0
10
79.024904
20
-43.791362
30
0.0
10
81.198437
20
-45.074064
30
0.0
10
83.319713
20
-46.097955
30
0.0
10
85.322207
20
-46.828793
30
0.0
10
87.139396
20
-47.232336
30
0.0
10
88.704758
20
-47.274342
30
0.0
10
89.951769
20
-46.920567
30
0.0
10
90.435104
20
-46.584561
30
0.0
10
90.813905
20
-46.136769
30
0.0
10
91.079856
20
-45.572910
30
0.0
10
91.224643
20
-44.888705
30
0.0
10
91.117460
20
-43.142134
30
0.0
10
89.882608
20
-38.485748
30
0.0
10
89.575778
20
-36.535673
30
0.0
10
89.462701
20
-34.821469
30
0.0
10
89.533391
20
-33.330983
30
0.0
10
89.777865
20
-32.052059
30
0.0
10
90.186137
20
-30.972542
30
0.0
10
90.748224
20
-30.080278
30
0.0
10
91.454141
20
-29.363111
30
0.0
10
92.293904
20
-28.808887
30
0.0
10
93.257529
20
-28.405452
30
0.0
10
94.335031
20
-28.140649
30
0.0
10
96.791730
20
-27.978325
30
0.0
10
99.584126
20
-28.224675
30
0.0
10
101.248756
20
-30.160105
30
0.0
10
102.972416
20
-31.812196
30
0.0
10
104.751050
20
-33.200404
30
0.0
10
106.580607
20
-34.344186
30
0.0
10
108.457032
20
-35.262998
30
0.0
10
110.376273
20
-35.976298
30
0.0
10
112.334275
20
-36.503542
30
0.0
10
114.326985
20
-36.864187
30
0.0
10
118.400317
20
-37.163505
30
0.0
10
122.563839
20
-37.029907
30
0.0
10
126.785124
20
-36.619047
30
0.0
10
131.031745
20
-36.086579
30
0.0
10
131.037297
20
-31.964094
30
0.0
10
130.919541
20
-27.898125
30
0.0
10
130.523352
20
-23.959772
30
0.0
10
129.693604
20
-20.220133
30
0.0
10
129.067668
20
-18.447050
30
0.0
10
128.275171
20
-16.750308
30
0.0
10
127.296721
20
-15.138794
30
0.0
10
126.112928
20
-13.621396
30
0.0
10
124.704400
20
-12.207001
30
0.0
10
123.051748
20
-10.904496
30
0.0
10
121.135581
20
-9.722769
30
0.0
10
118.936508
20
-8.670708
30
0.0
10
118.936508
20
-8.670708
30
0.0
  0
ENDSEC
  0
SECTION
  2
OBJECTS
  0
DICTIONARY
  5
C
330
0
100
AcDbDictionary
  3
ACAD_GROUP
350
D
  3
ACAD_MLINESTYLE
350
17
  0
DICTIONARY
  5
D
330
C
100
AcDbDictionary
  0
DICTIONARY
  5
1A
330
C
100
AcDbDictionary
  0
DICTIONARY
  5
17
330
C
100
AcDbDictionary
  3
STANDARD
350
18
  0
DICTIONARY
  5
19
330
C
100
AcDbDictionary
  0
ENDSEC
  0
EOF
